<?xml version="1.0" encoding="UTF-8"?>
<svg width="21px" height="25px" viewBox="0 0 21 25" version="1.1" xmlns="http://www.w3.org/2000/svg" xmlns:xlink="http://www.w3.org/1999/xlink">
    <!-- Generator: Sketch 61 (89581) - https://sketch.com -->
    <title>apple-logo</title>
    <desc>Created with Sketch.</desc>
    <g id="Downloads" stroke="none" stroke-width="1" fill="none" fill-rule="evenodd">
        <g id="Icons---Active" transform="translate(-2.000000, 0.000000)" fill="#9330FF" fill-rule="nonzero">
            <g id="apple-logo" transform="translate(2.333333, 0.000000)">
                <g id="g186" transform="translate(10.500000, 15.260602) scale(-1, 1) rotate(-180.000000) translate(-10.500000, -15.260602) translate(0.000000, 5.760602)">
                    <path d="M16.9635971,11.6102996 C16.9355187,14.7425974 19.5218483,16.2463499 19.6388415,16.3196657 C18.1834461,18.4489418 15.9184579,18.7406448 15.1104249,18.7749629 C13.1839369,18.9699515 11.3494836,17.6409088 10.3729804,17.6409088 C9.3964772,17.6409088 7.88648502,18.7468845 6.28913792,18.7156863 C4.18638022,18.6844881 2.25053281,17.4942773 1.16795578,15.6130268 C-1.0143573,11.8271269 0.611068166,6.21613329 2.7356646,3.14311202 C3.77612408,1.64091939 5.01469205,-0.0515821739 6.64323733,0.010814197 C8.21250606,0.073210568 8.80527158,1.02475523 10.6990014,1.02475523 C12.5927313,1.02475523 13.1262203,0.010814197 14.7844038,0.0404524732 C16.4706658,0.073210568 17.5407635,1.5754032 18.5734235,3.08227556 C19.7651941,4.82625413 20.2581255,6.51407596 20.2862038,6.60299079 C20.248766,6.61858988 16.9979151,7.86495739 16.9635971,11.6102996" id="path188"></path>
                </g>
                <path d="M13.8483985,3.95277597 C14.7125769,2.90607543 15.2959773,1.45065875 15.135291,0 C13.8903895,0.0499711319 12.3836053,0.829888797 11.4897503,1.87658934 C10.6895382,2.80165678 9.9875847,4.28352793 10.1778055,5.7046522 C11.5661759,5.81228737 12.984078,4.99793794 13.8483985,3.95277597" id="path190"></path>
            </g>
        </g>
    </g>
</svg>