<?xml version="1.0" encoding="UTF-8"?>
<svg width="25px" height="25px" viewBox="0 0 25 25" version="1.1" xmlns="http://www.w3.org/2000/svg" xmlns:xlink="http://www.w3.org/1999/xlink">
    <!-- Generator: Sketch 64 (93537) - https://sketch.com -->
    <title>github-logo</title>
    <desc>Created with Sketch.</desc>
    <g id="Downloads" stroke="none" stroke-width="1" fill="none" fill-rule="evenodd">
        <g id="Icons" fill="#9330FF" fill-rule="nonzero">
            <path d="M12.5,-2.27373675e-13 C5.60729167,-2.27373675e-13 0,5.67348229 0,12.6475548 C0,18.5244519 4.11458333,23.7141653 9.78333333,24.9873524 C9.9375,25.0200253 10.0979167,24.9831366 10.221875,24.8840641 C10.3447917,24.7839376 10.4166667,24.6332209 10.4166667,24.4730185 L10.4166667,21.6062395 C10.4166667,21.3153457 10.1833333,21.079258 9.89583333,21.079258 L8.85416667,21.079258 C7.55416667,21.079258 6.66979167,19.8324199 5.88854167,18.7331366 C5.80833333,18.6203626 5.72916667,18.5075885 5.64895833,18.3979764 C6.01875,18.5961214 6.33645833,18.835371 6.65,19.0704047 C7.27395833,19.5383642 7.91979167,20.0221332 8.778125,20.0221332 C8.78125,20.0221332 8.78541667,20.0221332 8.78854167,20.0221332 C8.85520833,20.029511 9.46354167,20.0927487 9.934375,19.6743255 C10.1552083,19.4772344 10.4166667,19.1051855 10.4166667,18.4443508 L10.4166667,18.0765177 C10.4166667,17.84043 10.2625,17.6338533 10.0375,17.5695616 C7.14895833,16.7422007 5.20833333,14.5520658 5.20833333,12.1205734 C5.20833333,10.8558179 5.721875,9.64903035 6.69270833,8.62984823 C6.84270833,8.47280776 6.88125,8.23988196 6.790625,8.04173693 C6.403125,7.19645868 6.48541667,6.04658516 6.94479167,5.35623946 C7.553125,5.59548904 8.34166667,6.09822934 8.85416667,6.71374368 C8.99479167,6.8834317 9.22604167,6.94456155 9.43125,6.86867622 C11.384375,6.14354975 13.6166667,6.14354975 15.5697917,6.86867622 C15.7770833,6.94456155 16.0072917,6.88237774 16.146875,6.71374368 C16.659375,6.09822934 17.4479167,5.59548904 18.0552083,5.3551855 C18.515625,6.0455312 18.5979167,7.19645868 18.209375,8.04173693 C18.11875,8.23988196 18.1572917,8.47280776 18.3072917,8.62984823 C19.278125,9.64903035 19.7916667,10.8558179 19.7916667,12.1205734 C19.7916667,14.6732715 17.6354167,16.959317 14.5489583,17.6791737 C14.3916667,17.7160624 14.259375,17.8246206 14.1927083,17.9732293 C14.1260417,18.1218381 14.1302083,18.2936341 14.20625,18.438027 C14.4635417,18.9333895 14.5833333,19.6047639 14.5833333,20.5522766 L14.5833333,24.4730185 C14.5833333,24.6332209 14.6552083,24.7839376 14.778125,24.8840641 C14.871875,24.9599494 14.9864583,25 15.1041667,25 C15.1416667,25 15.1791667,24.9957841 15.2166667,24.9873524 C20.8854167,23.7141653 25,18.5244519 25,12.6475548 C25,5.67348229 19.3927083,-2.27373675e-13 12.5,-2.27373675e-13 Z" id="github-logo"></path>
        </g>
    </g>
</svg>