<?xml version="1.0" encoding="UTF-8"?>
<svg width="25px" height="25px" viewBox="0 0 25 25" version="1.1" xmlns="http://www.w3.org/2000/svg" xmlns:xlink="http://www.w3.org/1999/xlink">
    <!-- Generator: Sketch 61 (89581) - https://sketch.com -->
    <title>support-logo</title>
    <desc>Created with Sketch.</desc>
    <g id="Downloads" stroke="none" stroke-width="1" fill="none" fill-rule="evenodd">
        <g id="Icons---Active" fill="#9330FF">
            <path d="M15.2356902,0.189393939 L15.9652076,3.77012311 L18.488122,5.22017045 L22.0749158,4.03645833 L24.8106061,8.65293561 L22.0445193,11.0203598 L22.0445193,13.9796402 L24.8106061,16.3470644 L22.0749158,20.9635417 L18.488122,19.7798295 L15.9652076,21.2298769 L15.2356902,24.8106061 L9.76430976,24.8106061 L9.03479237,21.2298769 L6.51187804,19.7798295 L2.92508418,20.9635417 L0.189393939,16.3470644 L2.95548073,13.9796402 L2.95548073,11.0203598 L0.189393939,8.65293561 L2.92508418,4.03645833 L6.51187804,5.22017045 L9.03479237,3.77012311 L9.76430976,0.189393939 L15.2356902,0.189393939 Z M12.5,8.80681818 C10.460312,8.80681818 8.80681818,10.460312 8.80681818,12.5 C8.80681818,14.539688 10.460312,16.1931818 12.5,16.1931818 C14.539688,16.1931818 16.1931818,14.539688 16.1931818,12.5 C16.1931818,10.460312 14.539688,8.80681818 12.5,8.80681818 Z" id="support-logo"></path>
        </g>
    </g>
</svg>