<?xml version="1.0" encoding="UTF-8"?>
<svg width="25px" height="25px" viewBox="0 0 25 25" version="1.1" xmlns="http://www.w3.org/2000/svg" xmlns:xlink="http://www.w3.org/1999/xlink">
    <!-- Generator: Sketch 61 (89581) - https://sketch.com -->
    <title>Icons - Active</title>
    <desc>Created with Sketch.</desc>
    <g id="Icons---Active" stroke="none" stroke-width="1" fill="none" fill-rule="evenodd">
        <g id="ubuntu-logo" fill="#9330FF" fill-rule="nonzero">
            <path d="M12.4955278,-2.7000624e-13 C19.3821114,-2.7000624e-13 24.9645895,5.58255132 24.9645895,12.4690616 C24.9645895,19.3551319 19.3820381,24.9378299 12.4955278,24.9378299 C5.60887097,24.9378299 0.0263929619,19.3551319 0.0263929619,12.4690616 C0.0263929619,5.58255132 5.60894428,-2.7000624e-13 12.4955278,-2.7000624e-13 Z M15.9031525,18.3702346 C15.1068915,18.8301319 14.833871,19.8477272 15.2938416,20.6435483 C15.7532258,21.4398094 16.7708211,21.7127566 17.5670821,21.2528593 C18.3632698,20.7934751 18.6362903,19.7758798 18.176393,18.9795454 C17.7170088,18.1837977 16.698827,17.9108505 15.9031525,18.3702346 Z M17.3382698,12.8999267 C17.1200146,15.3845308 15.0359237,17.3315982 12.4955278,17.3315982 C11.7637097,17.3315982 11.0695015,17.1687684 10.4472874,16.8792522 L9.29054252,18.9520528 C10.2565982,19.4307918 11.344648,19.701173 12.4955278,19.701173 C13.1649561,19.701173 13.8124634,19.6081378 14.4276393,19.4378299 C14.5361437,18.7688416 14.9332111,18.1531525 15.566129,17.7871701 C16.1985337,17.4222874 16.9292522,17.3863637 17.5622434,17.6255132 C18.7931818,16.4149561 19.5942815,14.768695 19.7109971,12.9348974 L17.3382698,12.8999267 Z M8.48343108,6.45183284 C7.02690616,7.42543988 5.94318182,8.91319648 5.49281525,10.6556451 C6.01832845,11.0844575 6.35469208,11.7372434 6.35469208,12.4689883 C6.35469208,13.2002933 6.01832845,13.8530792 5.49281525,14.2818915 C5.94259531,16.0248534 7.02631965,17.5126833 8.48343108,18.4862903 L9.70051319,16.4472874 C8.45014663,15.5676687 7.6329912,14.1142962 7.6329912,12.4690616 C7.6329912,10.8239003 8.45014663,9.37045454 9.70051319,8.49032258 L8.48343108,6.45183284 Z M4.01693549,10.803959 C3.09706745,10.803959 2.35183284,11.5492669 2.35183284,12.4690616 C2.35183284,13.3884164 3.09706745,14.1336511 4.01693549,14.1336511 C4.93629032,14.1336511 5.68152492,13.3884164 5.68152492,12.4690616 C5.68152492,11.5492669 4.93629032,10.803959 4.01693549,10.803959 Z M12.4953812,5.23702346 C11.3445748,5.23702346 10.2565249,5.50733138 9.29046921,5.98548387 L10.4472141,8.05835777 C11.0695015,7.76876833 11.7637097,7.60601173 12.4955278,7.60601173 C15.0358505,7.60601173 17.1200146,9.553739 17.338783,12.0376833 L19.7109237,12.0027126 C19.5942082,10.1689149 18.7931085,8.52265396 17.5621701,7.31209678 C16.9291789,7.55124634 16.1980205,7.51466275 15.5660558,7.15036657 C14.9329912,6.78504398 14.5360704,6.16876833 14.427566,5.49978006 C13.8123167,5.32998534 13.1648094,5.23702346 12.4953812,5.23702346 Z M15.2931818,4.29398827 C14.833871,5.08980938 15.1068182,6.10747801 15.902566,6.56686217 C16.698827,7.02668622 17.7164956,6.75432552 18.1758798,5.95806451 C18.6357771,5.16180352 18.3634164,4.14413489 17.5670821,3.68416422 C16.7708211,3.22478006 15.7532258,3.49772728 15.2931818,4.29398827 Z" id="Path-2"></path>
        </g>
    </g>
</svg>