<?xml version="1.0" encoding="UTF-8"?>
<svg width="21px" height="21px" viewBox="0 0 21 21" version="1.1" xmlns="http://www.w3.org/2000/svg" xmlns:xlink="http://www.w3.org/1999/xlink">
    <title>pickaxe</title>
    <defs>
        <linearGradient x1="17.5534767%" y1="10.0218476%" x2="75.8239188%" y2="77.3326874%" id="linearGradient-1">
            <stop stop-color="#6239FF" offset="0%"></stop>
            <stop stop-color="#C326D6" offset="100%"></stop>
        </linearGradient>
    </defs>
    <g id="Final-Designs" stroke="none" stroke-width="1" fill="none" fill-rule="evenodd">
        <g id="Icons" transform="translate(-3.000000, -2.000000)" fill="url(#linearGradient-1)" fill-rule="nonzero">
            <g id="pickaxe" transform="translate(3.277614, 2.277614)">
                <path d="M10.497498,6.94454229 L12.3327713,8.72609128 L2.13370748,18.9251551 C1.90721342,19.1516492 1.10585354,19.1516492 0.584964752,18.4899525 C0.0640759669,17.8282558 0.071940138,17.3701002 0.298434194,17.1436061 L0.298434194,17.1436061 L10.497498,6.94454229 Z M16.2720822,6.37090565 C18.9565644,9.80539848 19.3513792,14.0902745 18.8462711,16.7864741 C18.4013153,14.9902199 16.8419442,12.2386411 14.1681577,8.53173794 L14.1681577,8.53173794 Z M13.5546245,3.65711182 C13.692216,3.51997213 13.9148091,3.51997213 14.0524006,3.65711182 L14.0524006,3.65711182 L15.5289391,5.13365036 C15.6660788,5.27124179 15.6660788,5.49383497 15.5289391,5.63146404 L15.5289391,5.63146404 L13.5596313,7.60043306 C13.4204588,7.73335654 13.2013666,7.73335654 13.0621941,7.60043306 L13.0621941,7.60043306 L11.5856555,6.12389452 C11.519589,6.05790334 11.4824714,5.96838421 11.4824714,5.87498768 C11.4824714,5.78159115 11.519589,5.69207202 11.5856555,5.62608084 L11.5856555,5.62608084 Z M12.8013713,2.88275997 L10.640539,4.9866844 C6.9336358,2.31289794 4.18205707,0.753526822 2.38580281,0.308571059 C5.08200241,-0.196537066 9.36687847,0.198277709 12.8013713,2.88275997 Z" id="Path-2"></path>
            </g>
        </g>
    </g>
</svg>