<?xml version="1.0" encoding="UTF-8"?>
<svg width="1077px" height="241px" viewBox="0 0 1077 241" version="1.1" xmlns="http://www.w3.org/2000/svg" xmlns:xlink="http://www.w3.org/1999/xlink">
    <title>Group</title>
    <g id="Substack-Post-Banners" stroke="none" stroke-width="1" fill="none" fill-rule="evenodd">
        <g id="Group-60-Copy">
            <g id="Group-2">
                <g id="Group">
                    <text id="400" font-family="Avenir-Black, Avenir" font-size="12.737088" font-weight="700" fill="#98A6B2">
                        <tspan x="1.34792986" y="13.04">400</tspan>
                    </text>
                    <text id="100" font-family="Avenir-Black, Avenir" font-size="12.737088" font-weight="700" fill="#98A6B2">
                        <tspan x="0.954809856" y="167.70464">100</tspan>
                    </text>
                    <line x1="1075.80094" y1="169.243736" x2="38.800944" y2="169.243736" id="Line" stroke="#E1E7EA" stroke-width="0.78" opacity="0.200000003" stroke-linecap="square"></line>
                    <line x1="1075.80094" y1="219.08012" x2="38.800944" y2="219.08012" id="Line" stroke="#E1E7EA" stroke-width="0.78" opacity="0.200000003" stroke-linecap="square"></line>
                    <line x1="1075.80094" y1="117.688856" x2="38.800944" y2="117.688856" id="Line-Copy" stroke="#E1E7EA" stroke-width="0.78" opacity="0.200000003" stroke-linecap="square"></line>
                    <line x1="1075.80094" y1="66.133976" x2="38.800944" y2="66.133976" id="Line-Copy-2" stroke="#E1E7EA" stroke-width="0.78" opacity="0.200000003" stroke-linecap="square"></line>
                    <line x1="1075.80094" y1="14.579096" x2="38.800944" y2="14.579096" id="Line-Copy-3" stroke="#E1E7EA" stroke-width="0.78" opacity="0.200000003" stroke-linecap="square"></line>
                    <text id="200" font-family="Avenir-Black, Avenir" font-size="12.737088" font-weight="700" fill="#98A6B2">
                        <tspan x="0.954809856" y="116.14976">200</tspan>
                    </text>
                    <text id="300" font-family="Avenir-Black, Avenir" font-size="12.737088" font-weight="700" fill="#98A6B2">
                        <tspan x="0.954809856" y="64.59488">300</tspan>
                    </text>
                    <text id="0" font-family="Avenir-Black, Avenir" font-size="12.737088" font-weight="700" fill="#98A6B2">
                        <tspan x="8.49516595" y="220.118768">0</tspan>
                    </text>
                    <text id="2:35" font-family="Avenir-Black, Avenir" font-size="12.737088" font-weight="700" fill="#98A6B2">
                        <tspan x="73.3694008" y="232.14824">2:35</tspan>
                    </text>
                    <text id="2:37" font-family="Avenir-Black, Avenir" font-size="12.737088" font-weight="700" fill="#98A6B2">
                        <tspan x="286.07877" y="232.14824">2:37</tspan>
                    </text>
                    <text id="2:39" font-family="Avenir-Black, Avenir" font-size="12.737088" font-weight="700" fill="#98A6B2">
                        <tspan x="479.151796" y="232.14824">2:39</tspan>
                    </text>
                    <text id="2:41" font-family="Avenir-Black, Avenir" font-size="12.737088" font-weight="700" fill="#98A6B2">
                        <tspan x="703.53683" y="232.14824">2:41</tspan>
                    </text>
                    <text id="2:43" font-family="Avenir-Black, Avenir" font-size="12.737088" font-weight="700" fill="#98A6B2">
                        <tspan x="916.246199" y="232.14824">2:43</tspan>
                    </text>
                    <rect id="Rectangle" fill="#9330FF" x="54.722304" y="126.322072" width="5.30712" height="92.8876717"></rect>
                    <path d="M56.845152,105.789008 L57.906576,105.789008 C59.0789926,105.789008 60.029424,106.739439 60.029424,107.911856 L60.029424,126.241928 L60.029424,126.241928 L54.722304,126.241928 L54.722304,107.911856 C54.722304,106.739439 55.6727354,105.789008 56.845152,105.789008 Z" id="Rectangle-Copy" fill="#FF7630"></path>
                    <rect id="Rectangle-Copy-2" fill="#B4C9F5" x="54.722304" y="126.241928" width="5.30712" height="53.7353979"></rect>
                    <rect id="Rectangle" fill="#9330FF" x="367.095456" y="106.970474" width="5.30712" height="112.23927"></rect>
                    <path d="M369.218304,82.159688 L370.279728,82.159688 C371.452145,82.159688 372.402576,83.1101194 372.402576,84.282536 L372.402576,106.873633 L372.402576,106.873633 L367.095456,106.873633 L367.095456,84.282536 C367.095456,83.1101194 368.045887,82.159688 369.218304,82.159688 Z" id="Rectangle-Copy" fill="#FF7630"></path>
                    <rect id="Rectangle-Copy-2" fill="#B4C9F5" x="367.095456" y="106.873633" width="5.30712" height="64.9302724"></rect>
                    <rect id="Rectangle" fill="#9330FF" x="216.294624" y="164.102809" width="5.30712" height="55.1069348"></rect>
                    <path d="M218.417472,151.921276 L219.478896,151.921276 C220.651313,151.921276 221.601744,152.871708 221.601744,154.044124 L221.601744,164.055262 L221.601744,164.055262 L216.294624,164.055262 L216.294624,154.044124 C216.294624,152.871708 217.245055,151.921276 218.417472,151.921276 Z" id="Rectangle-Copy" fill="#FF7630"></path>
                    <rect id="Rectangle-Copy-2" fill="#B4C9F5" x="216.294624" y="164.055262" width="5.30712" height="31.8792904"></rect>
                    <rect id="Rectangle" fill="#9330FF" x="722.55456" y="164.102809" width="5.30712" height="55.1069348"></rect>
                    <path d="M724.677408,151.921276 L725.738832,151.921276 C726.911249,151.921276 727.86168,152.871708 727.86168,154.044124 L727.86168,164.055262 L727.86168,164.055262 L722.55456,164.055262 L722.55456,154.044124 C722.55456,152.871708 723.504991,151.921276 724.677408,151.921276 Z" id="Rectangle-Copy" fill="#FF7630"></path>
                    <rect id="Rectangle-Copy-2" fill="#B4C9F5" x="722.55456" y="164.055262" width="5.30712" height="31.8792904"></rect>
                    <rect id="Rectangle" fill="#9330FF" x="528.667776" y="152.710615" width="5.30712" height="66.4991286"></rect>
                    <path d="M530.790624,138.010808 L531.852048,138.010808 C533.024465,138.010808 533.974896,138.961239 533.974896,140.133656 L533.974896,152.653239 L533.974896,152.653239 L528.667776,152.653239 L528.667776,140.133656 C528.667776,138.961239 529.618207,138.010808 530.790624,138.010808 Z" id="Rectangle-Copy" fill="#FF7630"></path>
                    <rect id="Rectangle-Copy-2" fill="#B4C9F5" x="528.667776" y="152.653239" width="5.30712" height="38.4696598"></rect>
                    <rect id="Rectangle" fill="#9330FF" x="970.298784" y="152.710615" width="5.30712" height="66.4991286"></rect>
                    <path d="M972.421632,138.010808 L973.483056,138.010808 C974.655473,138.010808 975.605904,138.961239 975.605904,140.133656 L975.605904,152.653239 L975.605904,152.653239 L970.298784,152.653239 L970.298784,140.133656 C970.298784,138.961239 971.249215,138.010808 972.421632,138.010808 Z" id="Rectangle-Copy" fill="#FF7630"></path>
                    <rect id="Rectangle-Copy-2" fill="#B4C9F5" x="970.298784" y="152.653239" width="5.30712" height="38.4696598"></rect>
                    <rect id="Rectangle" fill="#9330FF" x="130.12272" y="92.8965843" width="5.30712" height="126.31316"></rect>
                    <path d="M132.245568,64.974728 L133.306992,64.974728 C134.479409,64.974728 135.42984,65.9251594 135.42984,67.097576 L135.42984,92.7875997 L135.42984,92.7875997 L130.12272,92.7875997 L130.12272,67.097576 C130.12272,65.9251594 131.073151,64.974728 132.245568,64.974728 Z" id="Rectangle-Copy" fill="#FF7630"></path>
                    <rect id="Rectangle-Copy-2" fill="#B4C9F5" x="130.12272" y="92.7875997" width="5.30712" height="73.0719994"></rect>
                    <rect id="Rectangle" fill="#9330FF" x="647.154144" y="92.8965843" width="5.30712" height="126.31316"></rect>
                    <path d="M649.276992,64.974728 L650.338416,64.974728 C651.510833,64.974728 652.461264,65.9251594 652.461264,67.097576 L652.461264,92.7875997 L652.461264,92.7875997 L647.154144,92.7875997 L647.154144,67.097576 C647.154144,65.9251594 648.104575,64.974728 649.276992,64.974728 Z" id="Rectangle-Copy" fill="#FF7630"></path>
                    <rect id="Rectangle-Copy-2" fill="#B4C9F5" x="647.154144" y="92.7875997" width="5.30712" height="73.0719994"></rect>
                    <rect id="Rectangle" fill="#9330FF" x="442.495872" y="66.8598885" width="5.30712" height="152.349856"></rect>
                    <path d="M444.61872,33.182552 L445.680144,33.182552 C446.852561,33.182552 447.802992,34.1329834 447.802992,35.3054 L447.802992,66.7284391 L447.802992,66.7284391 L442.495872,66.7284391 L442.495872,35.3054 C442.495872,34.1329834 443.446303,33.182552 444.61872,33.182552 Z" id="Rectangle-Copy" fill="#FF7630"></path>
                    <rect id="Rectangle-Copy-2" fill="#B4C9F5" x="442.495872" y="66.7284391" width="5.30712" height="88.1341942"></rect>
                    <rect id="Rectangle" fill="#9330FF" x="884.12688" y="66.8598885" width="5.30712" height="152.349856"></rect>
                    <path d="M886.249728,33.182552 L887.311152,33.182552 C888.483569,33.182552 889.434,34.1329834 889.434,35.3054 L889.434,66.7284391 L889.434,66.7284391 L884.12688,66.7284391 L884.12688,35.3054 C884.12688,34.1329834 885.077311,33.182552 886.249728,33.182552 Z" id="Rectangle-Copy" fill="#FF7630"></path>
                    <rect id="Rectangle-Copy-2" fill="#B4C9F5" x="884.12688" y="66.7284391" width="5.30712" height="88.1341942"></rect>
                    <rect id="Rectangle" fill="#9330FF" x="291.69504" y="144.272662" width="5.30712" height="74.9370818"></rect>
                    <path d="M293.817888,127.707623 L294.879312,127.707623 C296.051729,127.707623 297.00216,128.658055 297.00216,129.830471 L297.00216,144.208006 L297.00216,144.208006 L291.69504,144.208006 L291.69504,129.830471 C291.69504,128.658055 292.645471,127.707623 293.817888,127.707623 Z" id="Rectangle-Copy" fill="#FF7630"></path>
                    <rect id="Rectangle-Copy-2" fill="#B4C9F5" x="291.69504" y="144.208006" width="5.30712" height="43.3510048"></rect>
                    <rect id="Rectangle" fill="#9330FF" x="604.068192" y="128.785003" width="5.30712" height="90.424741"></rect>
                    <path d="M606.19104,108.796376 L607.252464,108.796376 C608.424881,108.796376 609.375312,109.746807 609.375312,110.919224 L609.375312,128.706983 L609.375312,128.706983 L604.068192,128.706983 L604.068192,110.919224 C604.068192,109.746807 605.018623,108.796376 606.19104,108.796376 Z" id="Rectangle-Copy" fill="#FF7630"></path>
                    <rect id="Rectangle-Copy-2" fill="#B4C9F5" x="604.068192" y="128.706983" width="5.30712" height="52.3105957"></rect>
                    <rect id="Rectangle" fill="#9330FF" x="1045.6992" y="128.785003" width="5.30712" height="90.424741"></rect>
                    <path d="M1047.82205,108.796376 L1048.88347,108.796376 C1050.05589,108.796376 1051.00632,109.746807 1051.00632,110.919224 L1051.00632,128.706983 L1051.00632,128.706983 L1045.6992,128.706983 L1045.6992,110.919224 C1045.6992,109.746807 1046.64963,108.796376 1047.82205,108.796376 Z" id="Rectangle-Copy" fill="#FF7630"></path>
                    <rect id="Rectangle-Copy-2" fill="#B4C9F5" x="1045.6992" y="128.706983" width="5.30712" height="52.3105957"></rect>
                    <rect id="Rectangle" fill="#9330FF" x="97.808256" y="126.322072" width="5.30712" height="92.8876717"></rect>
                    <path d="M99.931104,105.789008 L100.992528,105.789008 C102.164945,105.789008 103.115376,106.739439 103.115376,107.911856 L103.115376,126.241928 L103.115376,126.241928 L97.808256,126.241928 L97.808256,107.911856 C97.808256,106.739439 98.7586874,105.789008 99.931104,105.789008 Z" id="Rectangle-Copy" fill="#FF7630"></path>
                    <rect id="Rectangle-Copy-2" fill="#B4C9F5" x="97.808256" y="126.241928" width="5.30712" height="53.7353979"></rect>
                    <rect id="Rectangle" fill="#9330FF" x="410.181408" y="106.970474" width="5.30712" height="112.23927"></rect>
                    <path d="M412.304256,82.159688 L413.36568,82.159688 C414.538097,82.159688 415.488528,83.1101194 415.488528,84.282536 L415.488528,106.873633 L415.488528,106.873633 L410.181408,106.873633 L410.181408,84.282536 C410.181408,83.1101194 411.131839,82.159688 412.304256,82.159688 Z" id="Rectangle-Copy" fill="#FF7630"></path>
                    <rect id="Rectangle-Copy-2" fill="#B4C9F5" x="410.181408" y="106.873633" width="5.30712" height="64.9302724"></rect>
                    <rect id="Rectangle" fill="#9330FF" x="259.380576" y="164.102809" width="5.30712" height="55.1069348"></rect>
                    <path d="M261.503424,151.921276 L262.564848,151.921276 C263.737265,151.921276 264.687696,152.871708 264.687696,154.044124 L264.687696,164.055262 L264.687696,164.055262 L259.380576,164.055262 L259.380576,154.044124 C259.380576,152.871708 260.331007,151.921276 261.503424,151.921276 Z" id="Rectangle-Copy" fill="#FF7630"></path>
                    <rect id="Rectangle-Copy-2" fill="#B4C9F5" x="259.380576" y="164.055262" width="5.30712" height="31.8792904"></rect>
                    <rect id="Rectangle" fill="#9330FF" x="765.640512" y="164.102809" width="5.30712" height="55.1069348"></rect>
                    <path d="M767.76336,151.921276 L768.824784,151.921276 C769.997201,151.921276 770.947632,152.871708 770.947632,154.044124 L770.947632,164.055262 L770.947632,164.055262 L765.640512,164.055262 L765.640512,154.044124 C765.640512,152.871708 766.590943,151.921276 767.76336,151.921276 Z" id="Rectangle-Copy" fill="#FF7630"></path>
                    <rect id="Rectangle-Copy-2" fill="#B4C9F5" x="765.640512" y="164.055262" width="5.30712" height="31.8792904"></rect>
                    <rect id="Rectangle" fill="#9330FF" x="571.753728" y="152.710615" width="5.30712" height="66.4991286"></rect>
                    <path d="M573.876576,138.010808 L574.938,138.010808 C576.110417,138.010808 577.060848,138.961239 577.060848,140.133656 L577.060848,152.653239 L577.060848,152.653239 L571.753728,152.653239 L571.753728,140.133656 C571.753728,138.961239 572.704159,138.010808 573.876576,138.010808 Z" id="Rectangle-Copy" fill="#FF7630"></path>
                    <rect id="Rectangle-Copy-2" fill="#B4C9F5" x="571.753728" y="152.653239" width="5.30712" height="38.4696598"></rect>
                    <rect id="Rectangle" fill="#9330FF" x="1002.61325" y="152.710615" width="5.30712" height="66.4991286"></rect>
                    <path d="M1004.7361,138.010808 L1005.79752,138.010808 C1006.96994,138.010808 1007.92037,138.961239 1007.92037,140.133656 L1007.92037,152.653239 L1007.92037,152.653239 L1002.61325,152.653239 L1002.61325,140.133656 C1002.61325,138.961239 1003.56368,138.010808 1004.7361,138.010808 Z" id="Rectangle-Copy" fill="#FF7630"></path>
                    <rect id="Rectangle-Copy-2" fill="#B4C9F5" x="1002.61325" y="152.653239" width="5.30712" height="38.4696598"></rect>
                    <rect id="Rectangle" fill="#9330FF" x="173.208672" y="92.8965843" width="5.30712" height="126.31316"></rect>
                    <path d="M175.33152,64.974728 L176.392944,64.974728 C177.565361,64.974728 178.515792,65.9251594 178.515792,67.097576 L178.515792,92.7875997 L178.515792,92.7875997 L173.208672,92.7875997 L173.208672,67.097576 C173.208672,65.9251594 174.159103,64.974728 175.33152,64.974728 Z" id="Rectangle-Copy" fill="#FF7630"></path>
                    <rect id="Rectangle-Copy-2" fill="#B4C9F5" x="173.208672" y="92.7875997" width="5.30712" height="73.0719994"></rect>
                    <rect id="Rectangle" fill="#9330FF" x="679.468608" y="92.8965843" width="5.30712" height="126.31316"></rect>
                    <path d="M681.591456,64.974728 L682.65288,64.974728 C683.825297,64.974728 684.775728,65.9251594 684.775728,67.097576 L684.775728,92.7875997 L684.775728,92.7875997 L679.468608,92.7875997 L679.468608,67.097576 C679.468608,65.9251594 680.419039,64.974728 681.591456,64.974728 Z" id="Rectangle-Copy" fill="#FF7630"></path>
                    <rect id="Rectangle-Copy-2" fill="#B4C9F5" x="679.468608" y="92.7875997" width="5.30712" height="73.0719994"></rect>
                    <rect id="Rectangle" fill="#9330FF" x="485.581824" y="66.8598885" width="5.30712" height="152.349856"></rect>
                    <path d="M487.704672,33.182552 L488.766096,33.182552 C489.938513,33.182552 490.888944,34.1329834 490.888944,35.3054 L490.888944,66.7284391 L490.888944,66.7284391 L485.581824,66.7284391 L485.581824,35.3054 C485.581824,34.1329834 486.532255,33.182552 487.704672,33.182552 Z" id="Rectangle-Copy" fill="#FF7630"></path>
                    <rect id="Rectangle-Copy-2" fill="#B4C9F5" x="485.581824" y="66.7284391" width="5.30712" height="88.1341942"></rect>
                    <rect id="Rectangle" fill="#9330FF" x="927.212832" y="66.8598885" width="5.30712" height="152.349856"></rect>
                    <path d="M929.33568,33.182552 L930.397104,33.182552 C931.569521,33.182552 932.519952,34.1329834 932.519952,35.3054 L932.519952,66.7284391 L932.519952,66.7284391 L927.212832,66.7284391 L927.212832,35.3054 C927.212832,34.1329834 928.163263,33.182552 929.33568,33.182552 Z" id="Rectangle-Copy" fill="#FF7630"></path>
                    <rect id="Rectangle-Copy-2" fill="#B4C9F5" x="927.212832" y="66.7284391" width="5.30712" height="88.1341942"></rect>
                    <rect id="Rectangle" fill="#9330FF" x="776.412" y="144.272662" width="5.30712" height="74.9370818"></rect>
                    <path d="M778.534848,127.707623 L779.596272,127.707623 C780.768689,127.707623 781.71912,128.658055 781.71912,129.830471 L781.71912,144.208006 L781.71912,144.208006 L776.412,144.208006 L776.412,129.830471 C776.412,128.658055 777.362431,127.707623 778.534848,127.707623 Z" id="Rectangle-Copy" fill="#FF7630"></path>
                    <rect id="Rectangle-Copy-2" fill="#B4C9F5" x="776.412" y="144.208006" width="5.30712" height="43.3510048"></rect>
                    <rect id="Rectangle" fill="#9330FF" x="76.26528" y="148.840296" width="5.30712" height="70.3694483"></rect>
                    <path d="M78.388128,133.284944 L79.449552,133.284944 C80.6219686,133.284944 81.5724,134.235375 81.5724,135.407792 L81.5724,148.77958 L81.5724,148.77958 L76.26528,148.77958 L76.26528,135.407792 C76.26528,134.235375 77.2157114,133.284944 78.388128,133.284944 Z" id="Rectangle-Copy" fill="#FF7630"></path>
                    <rect id="Rectangle-Copy-2" fill="#B4C9F5" x="76.26528" y="148.77958" width="5.30712" height="40.7086348"></rect>
                    <rect id="Rectangle" fill="#9330FF" x="388.638432" y="134.414559" width="5.30712" height="84.7951852"></rect>
                    <path d="M390.76128,115.67036 L391.822704,115.67036 C392.995121,115.67036 393.945552,116.620791 393.945552,117.793208 L393.945552,134.341396 L393.945552,134.341396 L388.638432,134.341396 L388.638432,117.793208 C388.638432,116.620791 389.588863,115.67036 390.76128,115.67036 Z" id="Rectangle-Copy" fill="#FF7630"></path>
                    <rect id="Rectangle-Copy-2" fill="#B4C9F5" x="388.638432" y="134.341396" width="5.30712" height="49.0539049"></rect>
                    <rect id="Rectangle" fill="#9330FF" x="830.26944" y="134.414559" width="5.30712" height="84.7951852"></rect>
                    <path d="M832.392288,115.67036 L833.453712,115.67036 C834.626129,115.67036 835.57656,116.620791 835.57656,117.793208 L835.57656,134.341396 L835.57656,134.341396 L830.26944,134.341396 L830.26944,117.793208 C830.26944,116.620791 831.219871,115.67036 832.392288,115.67036 Z" id="Rectangle-Copy" fill="#FF7630"></path>
                    <rect id="Rectangle-Copy-2" fill="#B4C9F5" x="830.26944" y="134.341396" width="5.30712" height="49.0539049"></rect>
                    <rect id="Rectangle" fill="#9330FF" x="237.8376" y="177.462066" width="5.30712" height="41.7476779"></rect>
                    <path d="M239.960448,168.233632 L241.021872,168.233632 C242.194289,168.233632 243.14472,169.184064 243.14472,170.35648 L243.14472,177.426046 L243.14472,177.426046 L237.8376,177.426046 L237.8376,170.35648 C237.8376,169.184064 238.788031,168.233632 239.960448,168.233632 Z" id="Rectangle-Copy" fill="#FF7630"></path>
                    <rect id="Rectangle-Copy-2" fill="#B4C9F5" x="237.8376" y="177.426046" width="5.30712" height="24.1509776"></rect>
                    <rect id="Rectangle" fill="#9330FF" x="744.097536" y="177.462066" width="5.30712" height="41.7476779"></rect>
                    <path d="M746.220384,168.233632 L747.281808,168.233632 C748.454225,168.233632 749.404656,169.184064 749.404656,170.35648 L749.404656,177.426046 L749.404656,177.426046 L744.097536,177.426046 L744.097536,170.35648 C744.097536,169.184064 745.047967,168.233632 746.220384,168.233632 Z" id="Rectangle-Copy" fill="#FF7630"></path>
                    <rect id="Rectangle-Copy-2" fill="#B4C9F5" x="744.097536" y="177.426046" width="5.30712" height="24.1509776"></rect>
                    <rect id="Rectangle" fill="#9330FF" x="550.210752" y="168.895588" width="5.30712" height="50.3141555"></rect>
                    <path d="M552.3336,157.773512 L553.395024,157.773512 C554.567441,157.773512 555.517872,158.723943 555.517872,159.89636 L555.517872,168.852177 L555.517872,168.852177 L550.210752,168.852177 L550.210752,159.89636 C550.210752,158.723943 551.161183,157.773512 552.3336,157.773512 Z" id="Rectangle-Copy" fill="#FF7630"></path>
                    <rect id="Rectangle-Copy-2" fill="#B4C9F5" x="550.210752" y="168.852177" width="5.30712" height="29.1066738"></rect>
                    <rect id="Rectangle" fill="#9330FF" x="991.84176" y="168.895588" width="5.30712" height="50.3141555"></rect>
                    <path d="M993.964608,157.773512 L995.026032,157.773512 C996.198449,157.773512 997.14888,158.723943 997.14888,159.89636 L997.14888,168.852177 L997.14888,168.852177 L991.84176,168.852177 L991.84176,159.89636 C991.84176,158.723943 992.792191,157.773512 993.964608,157.773512 Z" id="Rectangle-Copy" fill="#FF7630"></path>
                    <rect id="Rectangle-Copy-2" fill="#B4C9F5" x="991.84176" y="168.852177" width="5.30712" height="29.1066738"></rect>
                    <rect id="Rectangle" fill="#9330FF" x="151.665696" y="123.507294" width="5.30712" height="95.7024497"></rect>
                    <path d="M153.788544,102.352016 L154.849968,102.352016 C156.022385,102.352016 156.972816,103.302447 156.972816,104.474864 L156.972816,123.424721 L156.972816,123.424721 L151.665696,123.424721 L151.665696,104.474864 C151.665696,103.302447 152.616127,102.352016 153.788544,102.352016 Z" id="Rectangle-Copy" fill="#FF7630"></path>
                    <rect id="Rectangle-Copy-2" fill="#B4C9F5" x="151.665696" y="123.424721" width="5.30712" height="55.3637433"></rect>
                    <rect id="Rectangle" fill="#9330FF" x="464.038848" y="103.803849" width="5.30712" height="115.405895"></rect>
                    <path d="M466.161696,78.293072 L467.22312,78.293072 C468.395537,78.293072 469.345968,79.2435034 469.345968,80.41592 L469.345968,103.704275 L469.345968,103.704275 L464.038848,103.704275 L464.038848,80.41592 C464.038848,79.2435034 464.989279,78.293072 466.161696,78.293072 Z" id="Rectangle-Copy" fill="#FF7630"></path>
                    <rect id="Rectangle-Copy-2" fill="#B4C9F5" x="464.038848" y="103.704275" width="5.30712" height="66.762161"></rect>
                    <rect id="Rectangle" fill="#9330FF" x="905.669856" y="103.803849" width="5.30712" height="115.405895"></rect>
                    <path d="M907.792704,78.293072 L908.854128,78.293072 C910.026545,78.293072 910.976976,79.2435034 910.976976,80.41592 L910.976976,103.704275 L910.976976,103.704275 L905.669856,103.704275 L905.669856,80.41592 C905.669856,79.2435034 906.620287,78.293072 907.792704,78.293072 Z" id="Rectangle-Copy" fill="#FF7630"></path>
                    <rect id="Rectangle-Copy-2" fill="#B4C9F5" x="905.669856" y="103.704275" width="5.30712" height="66.762161"></rect>
                    <rect id="Rectangle" fill="#9330FF" x="313.238016" y="162.432902" width="5.30712" height="56.7768419"></rect>
                    <path d="M315.360864,149.882232 L316.422288,149.882232 C317.594705,149.882232 318.545136,150.832663 318.545136,152.00508 L318.545136,162.383914 L318.545136,162.383914 L313.238016,162.383914 L313.238016,152.00508 C313.238016,150.832663 314.188447,149.882232 315.360864,149.882232 Z" id="Rectangle-Copy" fill="#FF7630"></path>
                    <rect id="Rectangle-Copy-2" fill="#B4C9F5" x="313.238016" y="162.383914" width="5.30712" height="32.8453296"></rect>
                    <rect id="Rectangle" fill="#9330FF" x="1067.24218" y="150.599532" width="5.30712" height="68.6102121"></rect>
                    <path d="M1069.36502,135.433064 L1070.42645,135.433064 C1071.59886,135.433064 1072.5493,136.383495 1072.5493,137.555912 L1072.5493,150.540334 L1072.5493,150.540334 L1067.24218,150.540334 L1067.24218,137.555912 C1067.24218,136.383495 1068.19261,135.433064 1069.36502,135.433064 Z" id="Rectangle-Copy" fill="#FF7630"></path>
                    <rect id="Rectangle-Copy-2" fill="#B4C9F5" x="1067.24218" y="150.540334" width="5.30712" height="39.6909189"></rect>
                    <rect id="Rectangle" fill="#9330FF" x="625.611168" y="148.840296" width="5.30712" height="70.3694483"></rect>
                    <path d="M627.734016,133.284944 L628.79544,133.284944 C629.967857,133.284944 630.918288,134.235375 630.918288,135.407792 L630.918288,148.77958 L630.918288,148.77958 L625.611168,148.77958 L625.611168,135.407792 C625.611168,134.235375 626.561599,133.284944 627.734016,133.284944 Z" id="Rectangle-Copy" fill="#FF7630"></path>
                    <rect id="Rectangle-Copy-2" fill="#B4C9F5" x="625.611168" y="148.77958" width="5.30712" height="40.7086348"></rect>
                    <rect id="Rectangle" fill="#9330FF" x="862.583904" y="134.414559" width="5.30712" height="84.7951852"></rect>
                    <path d="M864.706752,115.67036 L865.768176,115.67036 C866.940593,115.67036 867.891024,116.620791 867.891024,117.793208 L867.891024,134.341396 L867.891024,134.341396 L862.583904,134.341396 L862.583904,117.793208 C862.583904,116.620791 863.534335,115.67036 864.706752,115.67036 Z" id="Rectangle-Copy" fill="#FF7630"></path>
                    <rect id="Rectangle-Copy-2" fill="#B4C9F5" x="862.583904" y="134.341396" width="5.30712" height="49.0539049"></rect>
                    <rect id="Rectangle" fill="#9330FF" x="280.923552" y="177.462066" width="5.30712" height="41.7476779"></rect>
                    <path d="M283.0464,168.233632 L284.107824,168.233632 C285.280241,168.233632 286.230672,169.184064 286.230672,170.35648 L286.230672,177.426046 L286.230672,177.426046 L280.923552,177.426046 L280.923552,170.35648 C280.923552,169.184064 281.873983,168.233632 283.0464,168.233632 Z" id="Rectangle-Copy" fill="#FF7630"></path>
                    <rect id="Rectangle-Copy-2" fill="#B4C9F5" x="280.923552" y="177.426046" width="5.30712" height="24.1509776"></rect>
                    <rect id="Rectangle" fill="#9330FF" x="593.296704" y="168.895588" width="5.30712" height="50.3141555"></rect>
                    <path d="M595.419552,157.773512 L596.480976,157.773512 C597.653393,157.773512 598.603824,158.723943 598.603824,159.89636 L598.603824,168.852177 L598.603824,168.852177 L593.296704,168.852177 L593.296704,159.89636 C593.296704,158.723943 594.247135,157.773512 595.419552,157.773512 Z" id="Rectangle-Copy" fill="#FF7630"></path>
                    <rect id="Rectangle-Copy-2" fill="#B4C9F5" x="593.296704" y="168.852177" width="5.30712" height="29.1066738"></rect>
                    <rect id="Rectangle" fill="#9330FF" x="1024.15622" y="168.895588" width="5.30712" height="50.3141555"></rect>
                    <path d="M1026.27907,157.773512 L1027.3405,157.773512 C1028.51291,157.773512 1029.46334,158.723943 1029.46334,159.89636 L1029.46334,168.852177 L1029.46334,168.852177 L1024.15622,168.852177 L1024.15622,159.89636 C1024.15622,158.723943 1025.10666,157.773512 1026.27907,157.773512 Z" id="Rectangle-Copy" fill="#FF7630"></path>
                    <rect id="Rectangle-Copy-2" fill="#B4C9F5" x="1024.15622" y="168.852177" width="5.30712" height="29.1066738"></rect>
                    <rect id="Rectangle" fill="#9330FF" x="194.751648" y="123.507294" width="5.30712" height="95.7024497"></rect>
                    <path d="M196.874496,102.352016 L197.93592,102.352016 C199.108337,102.352016 200.058768,103.302447 200.058768,104.474864 L200.058768,123.424721 L200.058768,123.424721 L194.751648,123.424721 L194.751648,104.474864 C194.751648,103.302447 195.702079,102.352016 196.874496,102.352016 Z" id="Rectangle-Copy" fill="#FF7630"></path>
                    <rect id="Rectangle-Copy-2" fill="#B4C9F5" x="194.751648" y="123.424721" width="5.30712" height="55.3637433"></rect>
                    <rect id="Rectangle" fill="#9330FF" x="701.011584" y="123.507294" width="5.30712" height="95.7024497"></rect>
                    <path d="M703.134432,102.352016 L704.195856,102.352016 C705.368273,102.352016 706.318704,103.302447 706.318704,104.474864 L706.318704,123.424721 L706.318704,123.424721 L701.011584,123.424721 L701.011584,104.474864 C701.011584,103.302447 701.962015,102.352016 703.134432,102.352016 Z" id="Rectangle-Copy" fill="#FF7630"></path>
                    <rect id="Rectangle-Copy-2" fill="#B4C9F5" x="701.011584" y="123.424721" width="5.30712" height="55.3637433"></rect>
                    <rect id="Rectangle" fill="#9330FF" x="507.1248" y="103.803849" width="5.30712" height="115.405895"></rect>
                    <path d="M509.247648,78.293072 L510.309072,78.293072 C511.481489,78.293072 512.43192,79.2435034 512.43192,80.41592 L512.43192,103.704275 L512.43192,103.704275 L507.1248,103.704275 L507.1248,80.41592 C507.1248,79.2435034 508.075231,78.293072 509.247648,78.293072 Z" id="Rectangle-Copy" fill="#FF7630"></path>
                    <rect id="Rectangle-Copy-2" fill="#B4C9F5" x="507.1248" y="103.704275" width="5.30712" height="66.762161"></rect>
                    <rect id="Rectangle" fill="#9330FF" x="948.755808" y="103.803849" width="5.30712" height="115.405895"></rect>
                    <path d="M950.878656,78.293072 L951.94008,78.293072 C953.112497,78.293072 954.062928,79.2435034 954.062928,80.41592 L954.062928,103.704275 L954.062928,103.704275 L948.755808,103.704275 L948.755808,80.41592 C948.755808,79.2435034 949.706239,78.293072 950.878656,78.293072 Z" id="Rectangle-Copy" fill="#FF7630"></path>
                    <rect id="Rectangle-Copy-2" fill="#B4C9F5" x="948.755808" y="103.704275" width="5.30712" height="66.762161"></rect>
                    <rect id="Rectangle" fill="#9330FF" x="345.55248" y="162.432902" width="5.30712" height="56.7768419"></rect>
                    <path d="M347.675328,149.882232 L348.736752,149.882232 C349.909169,149.882232 350.8596,150.832663 350.8596,152.00508 L350.8596,162.383914 L350.8596,162.383914 L345.55248,162.383914 L345.55248,152.00508 C345.55248,150.832663 346.502911,149.882232 347.675328,149.882232 Z" id="Rectangle-Copy" fill="#FF7630"></path>
                    <rect id="Rectangle-Copy-2" fill="#B4C9F5" x="345.55248" y="162.383914" width="5.30712" height="32.8453296"></rect>
                    <rect id="Rectangle" fill="#9330FF" x="797.954976" y="162.432902" width="5.30712" height="56.7768419"></rect>
                    <path d="M800.077824,149.882232 L801.139248,149.882232 C802.311665,149.882232 803.262096,150.832663 803.262096,152.00508 L803.262096,162.383914 L803.262096,162.383914 L797.954976,162.383914 L797.954976,152.00508 C797.954976,150.832663 798.905407,149.882232 800.077824,149.882232 Z" id="Rectangle-Copy" fill="#FF7630"></path>
                    <rect id="Rectangle-Copy-2" fill="#B4C9F5" x="797.954976" y="162.383914" width="5.30712" height="32.8453296"></rect>
                    <rect id="Rectangle" fill="#9330FF" x="65.493792" y="119.285127" width="5.30712" height="99.9246166"></rect>
                    <path d="M67.61664,97.196528 L68.678064,97.196528 C69.8504806,97.196528 70.800912,98.1469594 70.800912,99.319376 L70.800912,119.198911 L70.800912,119.198911 L65.493792,119.198911 L65.493792,99.319376 C65.493792,98.1469594 66.4442234,97.196528 67.61664,97.196528 Z" id="Rectangle-Copy" fill="#FF7630"></path>
                    <rect id="Rectangle-Copy-2" fill="#B4C9F5" x="65.493792" y="119.198911" width="5.30712" height="57.8062614"></rect>
                    <rect id="Rectangle" fill="#9330FF" x="819.497952" y="98.5261402" width="5.30712" height="120.683604"></rect>
                    <path d="M821.6208,71.848712 L822.682224,71.848712 C823.854641,71.848712 824.805072,72.7991434 824.805072,73.97156 L824.805072,98.4220129 L824.805072,98.4220129 L819.497952,98.4220129 L819.497952,73.97156 C819.497952,72.7991434 820.448383,71.848712 821.6208,71.848712 Z" id="Rectangle-Copy" fill="#FF7630"></path>
                    <rect id="Rectangle-Copy-2" fill="#B4C9F5" x="819.497952" y="98.4220129" width="5.30712" height="69.8153086"></rect>
                    <rect id="Rectangle" fill="#9330FF" x="227.066112" y="159.928041" width="5.30712" height="59.2817026"></rect>
                    <path d="M229.18896,146.823665 L230.250384,146.823665 C231.422801,146.823665 232.373232,147.774097 232.373232,148.946513 L232.373232,159.876892 L232.373232,159.876892 L227.066112,159.876892 L227.066112,148.946513 C227.066112,147.774097 228.016543,146.823665 229.18896,146.823665 Z" id="Rectangle-Copy" fill="#FF7630"></path>
                    <rect id="Rectangle-Copy-2" fill="#B4C9F5" x="227.066112" y="159.876892" width="5.30712" height="34.2943882"></rect>
                    <rect id="Rectangle" fill="#9330FF" x="733.326048" y="159.928041" width="5.30712" height="59.2817026"></rect>
                    <path d="M735.448896,146.823665 L736.51032,146.823665 C737.682737,146.823665 738.633168,147.774097 738.633168,148.946513 L738.633168,159.876892 L738.633168,159.876892 L733.326048,159.876892 L733.326048,148.946513 C733.326048,147.774097 734.276479,146.823665 735.448896,146.823665 Z" id="Rectangle-Copy" fill="#FF7630"></path>
                    <rect id="Rectangle-Copy-2" fill="#B4C9F5" x="733.326048" y="159.876892" width="5.30712" height="34.2943882"></rect>
                    <rect id="Rectangle" fill="#9330FF" x="539.439264" y="147.784754" width="5.30712" height="71.42499"></rect>
                    <path d="M541.562112,131.996072 L542.623536,131.996072 C543.795953,131.996072 544.746384,132.946503 544.746384,134.11892 L544.746384,147.723128 L544.746384,147.723128 L539.439264,147.723128 L539.439264,134.11892 C539.439264,132.946503 540.389695,131.996072 541.562112,131.996072 Z" id="Rectangle-Copy" fill="#FF7630"></path>
                    <rect id="Rectangle-Copy-2" fill="#B4C9F5" x="539.439264" y="147.723128" width="5.30712" height="41.3192643"></rect>
                    <rect id="Rectangle" fill="#9330FF" x="981.070272" y="147.784754" width="5.30712" height="71.42499"></rect>
                    <path d="M983.19312,131.996072 L984.254544,131.996072 C985.426961,131.996072 986.377392,132.946503 986.377392,134.11892 L986.377392,147.723128 L986.377392,147.723128 L981.070272,147.723128 L981.070272,134.11892 C981.070272,132.946503 982.020703,131.996072 983.19312,131.996072 Z" id="Rectangle-Copy" fill="#FF7630"></path>
                    <rect id="Rectangle-Copy-2" fill="#B4C9F5" x="981.070272" y="147.723128" width="5.30712" height="41.3192643"></rect>
                    <rect id="Rectangle" fill="#9330FF" x="140.894208" y="83.3967088" width="5.30712" height="135.813035"></rect>
                    <path d="M143.017056,53.37488 L144.07848,53.37488 C145.250897,53.37488 146.201328,54.3253114 146.201328,55.497728 L146.201328,83.2795276 L146.201328,83.2795276 L140.894208,83.2795276 L140.894208,55.497728 C140.894208,54.3253114 141.844639,53.37488 143.017056,53.37488 Z" id="Rectangle-Copy" fill="#FF7630"></path>
                    <rect id="Rectangle-Copy-2" fill="#B4C9F5" x="140.894208" y="83.2795276" width="5.30712" height="78.5676651"></rect>
                    <rect id="Rectangle" fill="#9330FF" x="657.925632" y="83.3967088" width="5.30712" height="135.813035"></rect>
                    <path d="M660.04848,53.37488 L661.109904,53.37488 C662.282321,53.37488 663.232752,54.3253114 663.232752,55.497728 L663.232752,83.2795276 L663.232752,83.2795276 L657.925632,83.2795276 L657.925632,55.497728 C657.925632,54.3253114 658.876063,53.37488 660.04848,53.37488 Z" id="Rectangle-Copy" fill="#FF7630"></path>
                    <rect id="Rectangle-Copy-2" fill="#B4C9F5" x="657.925632" y="83.2795276" width="5.30712" height="78.5676651"></rect>
                    <rect id="Rectangle" fill="#9330FF" x="453.26736" y="55.2489295" width="5.30712" height="163.960814"></rect>
                    <path d="M455.390208,19.00496 L456.451632,19.00496 C457.624049,19.00496 458.57448,19.9553914 458.57448,21.127808 L458.57448,55.107462 L458.57448,55.107462 L453.26736,55.107462 L453.26736,21.127808 C453.26736,19.9553914 454.217791,19.00496 455.390208,19.00496 Z" id="Rectangle-Copy" fill="#FF7630"></path>
                    <rect id="Rectangle-Copy-2" fill="#B4C9F5" x="453.26736" y="55.107462" width="5.30712" height="94.851119"></rect>
                    <rect id="Rectangle" fill="#9330FF" x="894.898368" y="55.2489295" width="5.30712" height="163.960814"></rect>
                    <path d="M897.021216,19.00496 L898.08264,19.00496 C899.255057,19.00496 900.205488,19.9553914 900.205488,21.127808 L900.205488,55.107462 L900.205488,55.107462 L894.898368,55.107462 L894.898368,21.127808 C894.898368,19.9553914 895.848799,19.00496 897.021216,19.00496 Z" id="Rectangle-Copy" fill="#FF7630"></path>
                    <rect id="Rectangle-Copy-2" fill="#B4C9F5" x="894.898368" y="55.107462" width="5.30712" height="94.851119"></rect>
                    <rect id="Rectangle" fill="#9330FF" x="302.466528" y="138.636726" width="5.30712" height="80.5730183"></rect>
                    <path d="M304.589376,120.825848 L305.6508,120.825848 C306.823217,120.825848 307.773648,121.776279 307.773648,122.948696 L307.773648,138.567206 L307.773648,138.567206 L302.466528,138.567206 L302.466528,122.948696 C302.466528,121.776279 303.416959,120.825848 304.589376,120.825848 Z" id="Rectangle-Copy" fill="#FF7630"></path>
                    <rect id="Rectangle-Copy-2" fill="#B4C9F5" x="302.466528" y="138.567206" width="5.30712" height="46.6113868"></rect>
                    <rect id="Rectangle" fill="#9330FF" x="614.83968" y="122.099905" width="5.30712" height="97.1098386"></rect>
                    <path d="M616.962528,100.63352 L618.023952,100.63352 C619.196369,100.63352 620.1468,101.583951 620.1468,102.756368 L620.1468,122.016118 L620.1468,122.016118 L614.83968,122.016118 L614.83968,102.756368 C614.83968,101.583951 615.790111,100.63352 616.962528,100.63352 Z" id="Rectangle-Copy" fill="#FF7630"></path>
                    <rect id="Rectangle-Copy-2" fill="#B4C9F5" x="614.83968" y="122.016118" width="5.30712" height="56.177916"></rect>
                    <rect id="Rectangle" fill="#9330FF" x="1056.47069" y="122.099905" width="5.30712" height="97.1098386"></rect>
                    <path d="M1058.59354,100.63352 L1059.65496,100.63352 C1060.82738,100.63352 1061.77781,101.583951 1061.77781,102.756368 L1061.77781,122.016118 L1061.77781,122.016118 L1056.47069,122.016118 L1056.47069,102.756368 C1056.47069,101.583951 1057.42112,100.63352 1058.59354,100.63352 Z" id="Rectangle-Copy" fill="#FF7630"></path>
                    <rect id="Rectangle-Copy-2" fill="#B4C9F5" x="1056.47069" y="122.016118" width="5.30712" height="56.177916"></rect>
                    <rect id="Rectangle" fill="#9330FF" x="108.579744" y="119.285127" width="5.30712" height="99.9246166"></rect>
                    <path d="M110.702592,97.196528 L111.764016,97.196528 C112.936433,97.196528 113.886864,98.1469594 113.886864,99.319376 L113.886864,119.198911 L113.886864,119.198911 L108.579744,119.198911 L108.579744,99.319376 C108.579744,98.1469594 109.530175,97.196528 110.702592,97.196528 Z" id="Rectangle-Copy" fill="#FF7630"></path>
                    <rect id="Rectangle-Copy-2" fill="#B4C9F5" x="108.579744" y="119.198911" width="5.30712" height="57.8062614"></rect>
                    <rect id="Rectangle" fill="#9330FF" x="420.952896" y="98.5261402" width="5.30712" height="120.683604"></rect>
                    <path d="M423.075744,71.848712 L424.137168,71.848712 C425.309585,71.848712 426.260016,72.7991434 426.260016,73.97156 L426.260016,98.4220129 L426.260016,98.4220129 L420.952896,98.4220129 L420.952896,73.97156 C420.952896,72.7991434 421.903327,71.848712 423.075744,71.848712 Z" id="Rectangle-Copy" fill="#FF7630"></path>
                    <rect id="Rectangle-Copy-2" fill="#B4C9F5" x="420.952896" y="98.4220129" width="5.30712" height="69.8153086"></rect>
                    <rect id="Rectangle" fill="#9330FF" x="851.812416" y="98.5261402" width="5.30712" height="120.683604"></rect>
                    <path d="M853.935264,71.848712 L854.996688,71.848712 C856.169105,71.848712 857.119536,72.7991434 857.119536,73.97156 L857.119536,98.4220129 L857.119536,98.4220129 L851.812416,98.4220129 L851.812416,73.97156 C851.812416,72.7991434 852.762847,71.848712 853.935264,71.848712 Z" id="Rectangle-Copy" fill="#FF7630"></path>
                    <rect id="Rectangle-Copy-2" fill="#B4C9F5" x="851.812416" y="98.4220129" width="5.30712" height="69.8153086"></rect>
                    <rect id="Rectangle" fill="#9330FF" x="270.152064" y="159.928041" width="5.30712" height="59.2817026"></rect>
                    <path d="M272.274912,146.823665 L273.336336,146.823665 C274.508753,146.823665 275.459184,147.774097 275.459184,148.946513 L275.459184,159.876892 L275.459184,159.876892 L270.152064,159.876892 L270.152064,148.946513 C270.152064,147.774097 271.102495,146.823665 272.274912,146.823665 Z" id="Rectangle-Copy" fill="#FF7630"></path>
                    <rect id="Rectangle-Copy-2" fill="#B4C9F5" x="270.152064" y="159.876892" width="5.30712" height="34.2943882"></rect>
                    <rect id="Rectangle" fill="#9330FF" x="582.525216" y="147.784754" width="5.30712" height="71.42499"></rect>
                    <path d="M584.648064,131.996072 L585.709488,131.996072 C586.881905,131.996072 587.832336,132.946503 587.832336,134.11892 L587.832336,147.723128 L587.832336,147.723128 L582.525216,147.723128 L582.525216,134.11892 C582.525216,132.946503 583.475647,131.996072 584.648064,131.996072 Z" id="Rectangle-Copy" fill="#FF7630"></path>
                    <rect id="Rectangle-Copy-2" fill="#B4C9F5" x="582.525216" y="147.723128" width="5.30712" height="41.3192643"></rect>
                    <rect id="Rectangle" fill="#9330FF" x="1013.38474" y="147.784754" width="5.30712" height="71.42499"></rect>
                    <path d="M1015.50758,131.996072 L1016.56901,131.996072 C1017.74142,131.996072 1018.69186,132.946503 1018.69186,134.11892 L1018.69186,147.723128 L1018.69186,147.723128 L1013.38474,147.723128 L1013.38474,134.11892 C1013.38474,132.946503 1014.33517,131.996072 1015.50758,131.996072 Z" id="Rectangle-Copy" fill="#FF7630"></path>
                    <rect id="Rectangle-Copy-2" fill="#B4C9F5" x="1013.38474" y="147.723128" width="5.30712" height="41.3192643"></rect>
                    <rect id="Rectangle" fill="#9330FF" x="183.98016" y="83.3967088" width="5.30712" height="135.813035"></rect>
                    <path d="M186.103008,53.37488 L187.164432,53.37488 C188.336849,53.37488 189.28728,54.3253114 189.28728,55.497728 L189.28728,83.2795276 L189.28728,83.2795276 L183.98016,83.2795276 L183.98016,55.497728 C183.98016,54.3253114 184.930591,53.37488 186.103008,53.37488 Z" id="Rectangle-Copy" fill="#FF7630"></path>
                    <rect id="Rectangle-Copy-2" fill="#B4C9F5" x="183.98016" y="83.2795276" width="5.30712" height="78.5676651"></rect>
                    <rect id="Rectangle" fill="#9330FF" x="690.240096" y="83.3967088" width="5.30712" height="135.813035"></rect>
                    <path d="M692.362944,53.37488 L693.424368,53.37488 C694.596785,53.37488 695.547216,54.3253114 695.547216,55.497728 L695.547216,83.2795276 L695.547216,83.2795276 L690.240096,83.2795276 L690.240096,55.497728 C690.240096,54.3253114 691.190527,53.37488 692.362944,53.37488 Z" id="Rectangle-Copy" fill="#FF7630"></path>
                    <rect id="Rectangle-Copy-2" fill="#B4C9F5" x="690.240096" y="83.2795276" width="5.30712" height="78.5676651"></rect>
                    <rect id="Rectangle" fill="#9330FF" x="496.353312" y="55.2489295" width="5.30712" height="163.960814"></rect>
                    <path d="M498.47616,19.00496 L499.537584,19.00496 C500.710001,19.00496 501.660432,19.9553914 501.660432,21.127808 L501.660432,55.107462 L501.660432,55.107462 L496.353312,55.107462 L496.353312,21.127808 C496.353312,19.9553914 497.303743,19.00496 498.47616,19.00496 Z" id="Rectangle-Copy" fill="#FF7630"></path>
                    <rect id="Rectangle-Copy-2" fill="#B4C9F5" x="496.353312" y="55.107462" width="5.30712" height="94.851119"></rect>
                    <rect id="Rectangle" fill="#9330FF" x="937.98432" y="55.2489295" width="5.30712" height="163.960814"></rect>
                    <path d="M940.107168,19.00496 L941.168592,19.00496 C942.341009,19.00496 943.29144,19.9553914 943.29144,21.127808 L943.29144,55.107462 L943.29144,55.107462 L937.98432,55.107462 L937.98432,21.127808 C937.98432,19.9553914 938.934751,19.00496 940.107168,19.00496 Z" id="Rectangle-Copy" fill="#FF7630"></path>
                    <rect id="Rectangle-Copy-2" fill="#B4C9F5" x="937.98432" y="55.107462" width="5.30712" height="94.851119"></rect>
                    <rect id="Rectangle" fill="#9330FF" x="334.780992" y="138.636726" width="5.30712" height="80.5730183"></rect>
                    <path d="M336.90384,120.825848 L337.965264,120.825848 C339.137681,120.825848 340.088112,121.776279 340.088112,122.948696 L340.088112,138.567206 L340.088112,138.567206 L334.780992,138.567206 L334.780992,122.948696 C334.780992,121.776279 335.731423,120.825848 336.90384,120.825848 Z" id="Rectangle-Copy" fill="#FF7630"></path>
                    <rect id="Rectangle-Copy-2" fill="#B4C9F5" x="334.780992" y="138.567206" width="5.30712" height="46.6113868"></rect>
                    <rect id="Rectangle" fill="#9330FF" x="787.183488" y="138.636726" width="5.30712" height="80.5730183"></rect>
                    <path d="M789.306336,120.825848 L790.36776,120.825848 C791.540177,120.825848 792.490608,121.776279 792.490608,122.948696 L792.490608,138.567206 L792.490608,138.567206 L787.183488,138.567206 L787.183488,122.948696 C787.183488,121.776279 788.133919,120.825848 789.306336,120.825848 Z" id="Rectangle-Copy" fill="#FF7630"></path>
                    <rect id="Rectangle-Copy-2" fill="#B4C9F5" x="787.183488" y="138.567206" width="5.30712" height="46.6113868"></rect>
                    <rect id="Rectangle" fill="#9330FF" x="87.036768" y="134.062712" width="5.30712" height="85.1470324"></rect>
                    <path d="M89.159616,115.240736 L90.22104,115.240736 C91.3934566,115.240736 92.343888,116.191167 92.343888,117.363584 L92.343888,133.989246 L92.343888,133.989246 L87.036768,133.989246 L87.036768,117.363584 C87.036768,116.191167 87.9871994,115.240736 89.159616,115.240736 Z" id="Rectangle-Copy" fill="#FF7630"></path>
                    <rect id="Rectangle-Copy-2" fill="#B4C9F5" x="87.036768" y="133.989246" width="5.30712" height="49.2574481"></rect>
                    <rect id="Rectangle" fill="#9330FF" x="399.40992" y="116.47035" width="5.30712" height="102.739394"></rect>
                    <path d="M401.532768,93.759536 L402.594192,93.759536 C403.766609,93.759536 404.71704,94.7099674 404.71704,95.882384 L404.71704,116.381705 L404.71704,116.381705 L399.40992,116.381705 L399.40992,95.882384 C399.40992,94.7099674 400.360351,93.759536 401.532768,93.759536 Z" id="Rectangle-Copy" fill="#FF7630"></path>
                    <rect id="Rectangle-Copy-2" fill="#B4C9F5" x="399.40992" y="116.381705" width="5.30712" height="59.4346067"></rect>
                    <rect id="Rectangle" fill="#9330FF" x="841.040928" y="116.47035" width="5.30712" height="102.739394"></rect>
                    <path d="M843.163776,93.759536 L844.2252,93.759536 C845.397617,93.759536 846.348048,94.7099674 846.348048,95.882384 L846.348048,116.381705 L846.348048,116.381705 L841.040928,116.381705 L841.040928,95.882384 C841.040928,94.7099674 841.991359,93.759536 843.163776,93.759536 Z" id="Rectangle-Copy" fill="#FF7630"></path>
                    <rect id="Rectangle-Copy-2" fill="#B4C9F5" x="841.040928" y="116.381705" width="5.30712" height="59.4346067"></rect>
                    <rect id="Rectangle" fill="#9330FF" x="248.609088" y="168.695054" width="5.30712" height="50.5146902"></rect>
                    <path d="M250.731936,157.528649 L251.79336,157.528649 C252.965777,157.528649 253.916208,158.47908 253.916208,159.651497 L253.916208,168.651469 L253.916208,168.651469 L248.609088,168.651469 L248.609088,159.651497 C248.609088,158.47908 249.559519,157.528649 250.731936,157.528649 Z" id="Rectangle-Copy" fill="#FF7630"></path>
                    <rect id="Rectangle-Copy-2" fill="#B4C9F5" x="248.609088" y="168.651469" width="5.30712" height="29.2226829"></rect>
                    <rect id="Rectangle" fill="#9330FF" x="754.869024" y="168.695054" width="5.30712" height="50.5146902"></rect>
                    <path d="M756.991872,157.528649 L758.053296,157.528649 C759.225713,157.528649 760.176144,158.47908 760.176144,159.651497 L760.176144,168.651469 L760.176144,168.651469 L754.869024,168.651469 L754.869024,159.651497 C754.869024,158.47908 755.819455,157.528649 756.991872,157.528649 Z" id="Rectangle-Copy" fill="#FF7630"></path>
                    <rect id="Rectangle-Copy-2" fill="#B4C9F5" x="754.869024" y="168.651469" width="5.30712" height="29.2226829"></rect>
                    <rect id="Rectangle" fill="#9330FF" x="560.98224" y="158.340171" width="5.30712" height="60.8695728"></rect>
                    <path d="M563.105088,144.884792 L564.166512,144.884792 C565.338929,144.884792 566.28936,145.835223 566.28936,147.00764 L566.28936,158.287652 L566.28936,158.287652 L560.98224,158.287652 L560.98224,147.00764 C560.98224,145.835223 561.932671,144.884792 563.105088,144.884792 Z" id="Rectangle-Copy" fill="#FF7630"></path>
                    <rect id="Rectangle-Copy-2" fill="#B4C9F5" x="560.98224" y="158.287652" width="5.30712" height="35.2129691"></rect>
                    <rect id="Rectangle" fill="#9330FF" x="668.69712" y="103.452002" width="5.30712" height="115.757742"></rect>
                    <path d="M670.819968,77.863448 L671.881392,77.863448 C673.053809,77.863448 674.00424,78.8138794 674.00424,79.986296 L674.00424,103.352124 L674.00424,103.352124 L668.69712,103.352124 L668.69712,79.986296 C668.69712,78.8138794 669.647551,77.863448 670.819968,77.863448 Z" id="Rectangle-Copy" fill="#FF7630"></path>
                    <rect id="Rectangle-Copy-2" fill="#B4C9F5" x="668.69712" y="103.352124" width="5.30712" height="66.9657042"></rect>
                    <rect id="Rectangle" fill="#9330FF" x="474.810336" y="79.5263892" width="5.30712" height="139.683355"></rect>
                    <path d="M476.933184,48.649016 L477.994608,48.649016 C479.167025,48.649016 480.117456,49.5994474 480.117456,50.771864 L480.117456,79.4058686 L480.117456,79.4058686 L474.810336,79.4058686 L474.810336,50.771864 C474.810336,49.5994474 475.760767,48.649016 476.933184,48.649016 Z" id="Rectangle-Copy" fill="#FF7630"></path>
                    <rect id="Rectangle-Copy-2" fill="#B4C9F5" x="474.810336" y="79.4058686" width="5.30712" height="80.80664"></rect>
                    <rect id="Rectangle" fill="#9330FF" x="916.441344" y="79.5263892" width="5.30712" height="139.683355"></rect>
                    <path d="M918.564192,48.649016 L919.625616,48.649016 C920.798033,48.649016 921.748464,49.5994474 921.748464,50.771864 L921.748464,79.4058686 L921.748464,79.4058686 L916.441344,79.4058686 L916.441344,50.771864 C916.441344,49.5994474 917.391775,48.649016 918.564192,48.649016 Z" id="Rectangle-Copy" fill="#FF7630"></path>
                    <rect id="Rectangle-Copy-2" fill="#B4C9F5" x="916.441344" y="79.4058686" width="5.30712" height="80.80664"></rect>
                    <rect id="Rectangle" fill="#9330FF" x="324.009504" y="150.534814" width="5.30712" height="68.6749301"></rect>
                    <path d="M326.132352,135.35404 L327.193776,135.35404 C328.366193,135.35404 329.316624,136.304471 329.316624,137.476888 L329.316624,150.47556 L329.316624,150.47556 L324.009504,150.47556 L324.009504,137.476888 C324.009504,136.304471 324.959935,135.35404 326.132352,135.35404 Z" id="Rectangle-Copy" fill="#FF7630"></path>
                    <rect id="Rectangle-Copy-2" fill="#B4C9F5" x="324.009504" y="150.47556" width="5.30712" height="39.7283582"></rect>
                    <rect id="Rectangle" fill="#9330FF" x="119.351232" y="134.062712" width="5.30712" height="85.1470324"></rect>
                    <path d="M121.47408,115.240736 L122.535504,115.240736 C123.707921,115.240736 124.658352,116.191167 124.658352,117.363584 L124.658352,133.989246 L124.658352,133.989246 L119.351232,133.989246 L119.351232,117.363584 C119.351232,116.191167 120.301663,115.240736 121.47408,115.240736 Z" id="Rectangle-Copy" fill="#FF7630"></path>
                    <rect id="Rectangle-Copy-2" fill="#B4C9F5" x="119.351232" y="133.989246" width="5.30712" height="49.2574481"></rect>
                    <rect id="Rectangle" fill="#9330FF" x="431.724384" y="116.47035" width="5.30712" height="102.739394"></rect>
                    <path d="M433.847232,93.759536 L434.908656,93.759536 C436.081073,93.759536 437.031504,94.7099674 437.031504,95.882384 L437.031504,116.381705 L437.031504,116.381705 L431.724384,116.381705 L431.724384,95.882384 C431.724384,94.7099674 432.674815,93.759536 433.847232,93.759536 Z" id="Rectangle-Copy" fill="#FF7630"></path>
                    <rect id="Rectangle-Copy-2" fill="#B4C9F5" x="431.724384" y="116.381705" width="5.30712" height="59.4346067"></rect>
                    <rect id="Rectangle" fill="#9330FF" x="873.355392" y="116.47035" width="5.30712" height="102.739394"></rect>
                    <path d="M875.47824,93.759536 L876.539664,93.759536 C877.712081,93.759536 878.662512,94.7099674 878.662512,95.882384 L878.662512,116.381705 L878.662512,116.381705 L873.355392,116.381705 L873.355392,95.882384 C873.355392,94.7099674 874.305823,93.759536 875.47824,93.759536 Z" id="Rectangle-Copy" fill="#FF7630"></path>
                    <rect id="Rectangle-Copy-2" fill="#B4C9F5" x="873.355392" y="116.381705" width="5.30712" height="59.4346067"></rect>
                    <rect id="Rectangle" fill="#9330FF" x="1034.92771" y="158.340171" width="5.30712" height="60.8695728"></rect>
                    <path d="M1037.05056,144.884792 L1038.11198,144.884792 C1039.2844,144.884792 1040.23483,145.835223 1040.23483,147.00764 L1040.23483,158.287652 L1040.23483,158.287652 L1034.92771,158.287652 L1034.92771,147.00764 C1034.92771,145.835223 1035.87814,144.884792 1037.05056,144.884792 Z" id="Rectangle-Copy" fill="#FF7630"></path>
                    <rect id="Rectangle-Copy-2" fill="#B4C9F5" x="1034.92771" y="158.287652" width="5.30712" height="35.2129691"></rect>
                    <rect id="Rectangle" fill="#9330FF" x="205.523136" y="103.452002" width="5.30712" height="115.757742"></rect>
                    <path d="M207.645984,77.863448 L208.707408,77.863448 C209.879825,77.863448 210.830256,78.8138794 210.830256,79.986296 L210.830256,103.352124 L210.830256,103.352124 L205.523136,103.352124 L205.523136,79.986296 C205.523136,78.8138794 206.473567,77.863448 207.645984,77.863448 Z" id="Rectangle-Copy" fill="#FF7630"></path>
                    <rect id="Rectangle-Copy-2" fill="#B4C9F5" x="205.523136" y="103.352124" width="5.30712" height="66.9657042"></rect>
                    <rect id="Rectangle" fill="#9330FF" x="711.783072" y="103.452002" width="5.30712" height="115.757742"></rect>
                    <path d="M713.90592,77.863448 L714.967344,77.863448 C716.139761,77.863448 717.090192,78.8138794 717.090192,79.986296 L717.090192,103.352124 L717.090192,103.352124 L711.783072,103.352124 L711.783072,79.986296 C711.783072,78.8138794 712.733503,77.863448 713.90592,77.863448 Z" id="Rectangle-Copy" fill="#FF7630"></path>
                    <rect id="Rectangle-Copy-2" fill="#B4C9F5" x="711.783072" y="103.352124" width="5.30712" height="66.9657042"></rect>
                    <rect id="Rectangle" fill="#9330FF" x="517.896288" y="79.5263892" width="5.30712" height="139.683355"></rect>
                    <path d="M520.019136,48.649016 L521.08056,48.649016 C522.252977,48.649016 523.203408,49.5994474 523.203408,50.771864 L523.203408,79.4058686 L523.203408,79.4058686 L517.896288,79.4058686 L517.896288,50.771864 C517.896288,49.5994474 518.846719,48.649016 520.019136,48.649016 Z" id="Rectangle-Copy" fill="#FF7630"></path>
                    <rect id="Rectangle-Copy-2" fill="#B4C9F5" x="517.896288" y="79.4058686" width="5.30712" height="80.80664"></rect>
                    <rect id="Rectangle" fill="#9330FF" x="959.527296" y="79.5263892" width="5.30712" height="139.683355"></rect>
                    <path d="M961.650144,48.649016 L962.711568,48.649016 C963.883985,48.649016 964.834416,49.5994474 964.834416,50.771864 L964.834416,79.4058686 L964.834416,79.4058686 L959.527296,79.4058686 L959.527296,50.771864 C959.527296,49.5994474 960.477727,48.649016 961.650144,48.649016 Z" id="Rectangle-Copy" fill="#FF7630"></path>
                    <rect id="Rectangle-Copy-2" fill="#B4C9F5" x="959.527296" y="79.4058686" width="5.30712" height="80.80664"></rect>
                    <rect id="Rectangle" fill="#9330FF" x="356.323968" y="150.534814" width="5.30712" height="68.6749301"></rect>
                    <path d="M358.446816,135.35404 L359.50824,135.35404 C360.680657,135.35404 361.631088,136.304471 361.631088,137.476888 L361.631088,150.47556 L361.631088,150.47556 L356.323968,150.47556 L356.323968,137.476888 C356.323968,136.304471 357.274399,135.35404 358.446816,135.35404 Z" id="Rectangle-Copy" fill="#FF7630"></path>
                    <rect id="Rectangle-Copy-2" fill="#B4C9F5" x="356.323968" y="150.47556" width="5.30712" height="39.7283582"></rect>
                    <rect id="Rectangle" fill="#9330FF" x="808.726464" y="150.534814" width="5.30712" height="68.6749301"></rect>
                    <path d="M810.849312,135.35404 L811.910736,135.35404 C813.083153,135.35404 814.033584,136.304471 814.033584,137.476888 L814.033584,150.47556 L814.033584,150.47556 L808.726464,150.47556 L808.726464,137.476888 C808.726464,136.304471 809.676895,135.35404 810.849312,135.35404 Z" id="Rectangle-Copy" fill="#FF7630"></path>
                    <rect id="Rectangle-Copy-2" fill="#B4C9F5" x="808.726464" y="150.47556" width="5.30712" height="39.7283582"></rect>
                </g>
            </g>
        </g>
    </g>
</svg>