<?xml version="1.0" encoding="UTF-8"?>
<svg width="10px" height="16px" viewBox="0 0 10 16" version="1.1" xmlns="http://www.w3.org/2000/svg" xmlns:xlink="http://www.w3.org/1999/xlink">
    <!-- Generator: Sketch 64 (93537) - https://sketch.com -->
    <title>phone-icon</title>
    <desc>Created with Sketch.</desc>
    <g id="Final-Designs" stroke="none" stroke-width="1" fill="none" fill-rule="evenodd">
        <g id="for-devs" transform="translate(-143.000000, -1147.000000)">
            <g id="phone-icon" transform="translate(138.000000, 1145.000000)">
                <polygon id="Path" points="0 0 20 0 20 20 0 20"></polygon>
                <path d="M12.9230769,2 C13.9622874,2 14.8,2.8621459 14.8,3.92 L14.8,16.08 C14.8,17.1378541 13.9622874,18 12.9230769,18 L7.07692308,18 C6.03771264,18 5.2,17.1378541 5.2,16.08 L5.2,3.92 C5.2,2.8621459 6.03771264,2 7.07692308,2 L12.9230769,2 Z M8.24642835,3.46282153 L7.34601729,3.46282153 C6.80837638,3.46282153 6.36823418,3.9158012 6.36823418,4.47971596 L6.36823418,15.520284 C6.36823418,16.0841988 6.80837638,16.5371785 7.34601729,16.5371785 L12.6539827,16.5371785 C13.1916236,16.5371785 13.6317658,16.0841988 13.6317658,15.520284 L13.6317658,4.47971596 C13.6317658,3.9158012 13.1916236,3.46282153 12.6539827,3.46282153 L11.7535717,3.46282153 L11.2399624,3.97643077 C11.1037448,4.11264842 10.918994,4.18917469 10.7263532,4.18917469 L9.27364684,4.18917469 C9.08100599,4.18917469 8.89625523,4.11264842 8.76003757,3.97643077 L8.24642835,3.46282153 Z M11.1810418,14.150971 C11.8165799,14.150971 12.3317855,14.4700507 12.3317855,14.8636554 C12.3317855,15.2572601 11.8165799,15.5763398 11.1810418,15.5763398 L8.8795545,15.5763398 C8.24401639,15.5763398 7.72881084,15.2572601 7.72881084,14.8636554 C7.72881084,14.4700507 8.24401639,14.150971 8.8795545,14.150971 L11.1810418,14.150971 Z" id="Shape" fill="#2E2E2E" fill-rule="nonzero"></path>
            </g>
        </g>
    </g>
</svg>