<?xml version="1.0" encoding="UTF-8"?>
<svg width="19px" height="19px" viewBox="0 0 19 19" version="1.1" xmlns="http://www.w3.org/2000/svg" xmlns:xlink="http://www.w3.org/1999/xlink">
    <title>pickaxe</title>
    <defs>
        <linearGradient x1="17.5534767%" y1="10.0218476%" x2="75.8239188%" y2="77.3326874%" id="linearGradient-1">
            <stop stop-color="#6239FF" offset="0%"></stop>
            <stop stop-color="#C326D6" offset="100%"></stop>
        </linearGradient>
    </defs>
    <g id="Final-Designs" stroke="none" stroke-width="1" fill="none" fill-rule="evenodd">
        <g id="Icons" transform="translate(-4.000000, -3.000000)" fill="url(#linearGradient-1)" fill-rule="nonzero">
            <g id="pickaxe" transform="translate(4.067411, 3.067411)">
                <path d="M9.66840924,6.39606473 L11.3587333,8.0369076 L1.965188,17.4304529 C1.75658236,17.6390585 1.01851361,17.6390585 0.538764438,17.0296224 C0.0590152692,16.4201863 0.0662583307,15.9982156 0.274863964,15.78961 L0.274863964,15.78961 L9.66840924,6.39606473 Z M14.9869187,5.86773372 C17.4593815,9.03097148 17.8230139,12.9774295 17.3577991,15.4606842 C16.9479858,13.8062975 15.5117733,11.2720375 13.0491615,7.85790422 L13.0491615,7.85790422 Z M12.484085,3.36827438 C12.6108095,3.24196594 12.8158223,3.24196594 12.9425468,3.36827438 L12.9425468,3.36827438 L14.3024689,4.72819643 C14.4287773,4.85492093 14.4287773,5.05993378 14.3024689,5.18669295 L14.3024689,5.18669295 L12.4886963,7.00015348 C12.3605156,7.12257871 12.1587272,7.12257871 12.0305465,7.00015348 L12.0305465,7.00015348 L10.6706244,5.64023144 C10.6097759,5.57945222 10.5755897,5.49700328 10.5755897,5.41098318 C10.5755897,5.32496307 10.6097759,5.24251414 10.6706244,5.18173492 L10.6706244,5.18173492 Z M11.7903234,2.65508058 L9.80015291,4.59283779 C6.38601964,2.13022605 3.85175964,0.694013533 2.19737293,0.284200223 C4.68062761,-0.181014637 8.62708564,0.182617804 11.7903234,2.65508058 Z" id="Path-2"></path>
            </g>
        </g>
    </g>
</svg>