<?xml version="1.0" encoding="UTF-8"?>
<svg width="20px" height="18px" viewBox="0 0 20 18" version="1.1" xmlns="http://www.w3.org/2000/svg" xmlns:xlink="http://www.w3.org/1999/xlink">
    <title>social-twitter</title>
    <g id="Final-Designs" stroke="none" stroke-width="1" fill="none" fill-rule="evenodd">
        <g id="Nav" transform="translate(-49.000000, -1225.000000)" fill="#000000" fill-rule="nonzero">
            <g id="social-twitter" transform="translate(49.000000, 1225.159605)">
                <path d="M19.8203858,1.99424889 C19.6886524,1.84951554 19.4763191,1.81311554 19.3021191,1.90238221 C19.1937857,1.95784888 18.990119,2.03064889 18.748319,2.10258223 C19.0533857,1.6969822 19.2986524,1.24284883 19.4069857,0.834648805 C19.4537857,0.65871546 19.3853191,0.47324878 19.2362524,0.368382106 C19.0871857,0.264382099 18.888719,0.264382099 18.7396524,0.368382106 C18.5047857,0.532182117 17.3711856,1.02444882 16.6544522,1.1839155 C15.0346521,-0.234817936 13.149652,-0.38215128 11.1901185,0.7618488 C9.59718506,1.6917822 9.25051837,3.582849 9.31811837,4.73551574 C5.67205145,4.38451572 3.40571796,2.45878225 2.12998454,0.864982141 C2.04071786,0.753182133 1.89685119,0.694248795 1.76165118,0.702915463 C1.61951783,0.713315463 1.49125116,0.792182136 1.41845115,0.914382144 C0.815251112,1.93271555 0.647984434,3.05851563 0.936584454,4.17044904 C1.0943178,4.77711575 1.36991782,5.31184912 1.68971784,5.74518248 C1.53631783,5.66978248 1.38811782,5.5753158 1.24858448,5.46264913 C1.1203178,5.35691579 0.940917787,5.33698245 0.78925111,5.40718246 C0.6384511,5.4791158 0.542251093,5.63164914 0.542251093,5.79891582 C0.542251093,7.70818262 1.73651784,8.98218271 2.85191792,9.64778275 C2.67165124,9.62611609 2.48358456,9.58624942 2.29378455,9.52818275 C2.1308512,9.47878274 1.95405119,9.52818275 1.84138452,9.65644942 C1.72871784,9.78384943 1.70185117,9.96584944 1.77205118,10.1209828 C2.39865122,11.5067829 3.58598464,12.4601163 5.05498474,12.8059163 C3.77231799,13.5590497 2.0554512,13.9282497 0.483317755,13.7471164 C0.279651074,13.7185164 0.0855177275,13.8476497 0.0213843897,14.0435164 C-0.0427489481,14.2393831 0.0413177245,14.4543164 0.220717737,14.5548498 C2.60578457,15.8938499 4.76205139,16.3722499 6.62538485,16.3722499 C9.33718504,16.3722499 11.4301852,15.3599832 12.7041853,14.5132498 C16.1387855,12.2339163 18.2794523,8.14151598 17.981319,4.47984906 C18.5316524,4.07338237 19.3549857,3.32284898 19.8654524,2.51598226 C19.9711858,2.35304891 19.9521191,2.13811556 19.8203858,1.99424889 Z" id="Path"></path>
            </g>
        </g>
    </g>
</svg>