<svg xmlns="http://www.w3.org/2000/svg" width="25" height="22" viewBox="0 0 25 22">
    <path fill="#000" fill-rule="nonzero" d="M24.775 3.067a.541.541 0 0 0-.647-.115c-.136.07-.39.16-.693.25.382-.506.688-1.074.824-1.584a.542.542 0 0 0-.834-.583c-.294.205-1.711.82-2.607 1.02-2.025-1.774-4.38-1.958-6.83-.528-1.992 1.162-2.425 3.526-2.34 4.967-4.558-.439-7.39-2.846-8.986-4.838a.554.554 0 0 0-.46-.203.546.546 0 0 0-.429.264C1.02 2.99.81 4.397 1.171 5.787c.197.759.541 1.427.941 1.969a2.951 2.951 0 0 1-.551-.353.543.543 0 0 0-.883.42c0 2.387 1.493 3.98 2.887 4.811a4.047 4.047 0 0 1-.698-.15.542.542 0 0 0-.652.742c.783 1.732 2.267 2.924 4.104 3.356-1.604.941-3.75 1.403-5.715 1.176a.537.537 0 0 0-.577.37.541.541 0 0 0 .249.64c2.981 1.674 5.677 2.272 8.006 2.272 3.39 0 6.006-1.266 7.598-2.324 4.293-2.85 6.97-7.965 6.597-12.542.688-.508 1.717-1.446 2.355-2.455a.535.535 0 0 0-.057-.652z"/>
</svg>
