<?xml version="1.0" encoding="UTF-8"?>
<svg width="21px" height="21px" viewBox="0 0 21 21" version="1.1" xmlns="http://www.w3.org/2000/svg" xmlns:xlink="http://www.w3.org/1999/xlink">
    <title>social-github</title>
    <g id="Final-Designs" stroke="none" stroke-width="1" fill="none" fill-rule="evenodd">
        <g id="Nav" transform="translate(-179.000000, -1222.000000)" fill="#000000" fill-rule="nonzero">
            <g id="social-github" transform="translate(179.191260, 1222.300000)">
                <path d="M9.9840007,-3.37507799e-14 C4.47865631,-3.37507799e-14 7.03437308e-13,4.47865631 7.03437308e-13,9.9840007 C7.03437308e-13,14.623233 3.28640023,18.7200013 7.81414455,19.7250574 C7.93728055,19.7508494 8.06540856,19.7217294 8.16441657,19.6435214 C8.26259258,19.5644814 8.32000058,19.4455054 8.32000058,19.3190414 L8.32000058,17.0560012 C8.32000058,16.8263692 8.13363257,16.6400012 7.90400055,16.6400012 L7.07200049,16.6400012 C6.03366442,16.6400012 5.32729637,15.6557451 4.70329633,14.787969 C4.63923232,14.698945 4.57600032,14.609921 4.51193632,14.523393 C4.80729634,14.679809 5.06105635,14.868673 5.31148837,15.0542091 C5.80985641,15.4236171 6.32569644,15.8055051 7.01126449,15.8055051 C7.01376049,15.8055051 7.01708849,15.8055051 7.01958449,15.8055051 C7.07283249,15.8113291 7.55872053,15.8612491 7.93478455,15.5309451 C8.11116857,15.3753611 8.32000058,15.0816651 8.32000058,14.560001 L8.32000058,14.269633 C8.32000058,14.083265 8.19686457,13.920193 8.01715256,13.869441 C5.7100164,13.2163209 4.16000029,11.4874248 4.16000029,9.56800067 C4.16000029,8.5696006 4.57017632,7.61696053 5.34560037,6.81241648 C5.46540838,6.68844847 5.49619238,6.50457645 5.42380838,6.34816044 C5.11430436,5.6808964 5.18003236,4.77318433 5.54694439,4.2282243 C6.03283242,4.41708831 6.66265647,4.81395234 7.07200049,5.29984037 C7.1843205,5.43379238 7.36902452,5.48204838 7.53292853,5.42214438 C9.09292864,4.84972834 10.8759048,4.84972834 12.4359049,5.42214438 C12.6014729,5.48204838 12.7853449,5.43296038 12.8968329,5.29984037 C13.3061769,4.81395234 13.936001,4.41708831 14.421057,4.2273923 C14.788801,4.77235233 14.854529,5.6808964 14.544193,6.34816044 C14.471809,6.50457645 14.502593,6.68844847 14.622401,6.81241648 C15.3978251,7.61696053 15.8080011,8.5696006 15.8080011,9.56800067 C15.8080011,11.5831048 14.085761,13.3877129 11.6205448,13.955969 C11.4949128,13.985089 11.3892488,14.070785 11.3360008,14.188097 C11.2827528,14.305409 11.2860808,14.441025 11.3468168,14.555009 C11.5523208,14.946049 11.6480008,15.4760331 11.6480008,16.2240011 L11.6480008,19.3190414 C11.6480008,19.4455054 11.7054088,19.5644814 11.8035848,19.6435214 C11.8784648,19.7034254 11.9699848,19.7350414 12.0640008,19.7350414 C12.0939528,19.7350414 12.1239048,19.7317134 12.1538568,19.7250574 C16.6816012,18.7200013 19.9680014,14.623233 19.9680014,9.9840007 C19.9680014,4.47865631 15.4893451,-3.37507799e-14 9.9840007,-3.37507799e-14 Z" id="Path"></path>
            </g>
        </g>
    </g>
</svg>