<svg xmlns="http://www.w3.org/2000/svg" width="32" height="25" viewBox="0 0 32 25">
    <path fill="#000" fill-rule="nonzero" d="M16.838 7.417c.044-1.386.27-2.682 1.177-3.35.911-.671 2.498-.674 4.678-.063-.002.047-.014.092-.014.14a3.254 3.254 0 0 0 3.25 3.25 3.254 3.254 0 0 0 3.25-3.25 3.254 3.254 0 0 0-3.25-3.25 3.243 3.243 0 0 0-2.913 1.839c-2.612-.732-4.511-.644-5.77.287-1.346.992-1.655 2.66-1.705 4.395-6.872.22-12.362 3.91-12.362 8.43 0 4.659 5.832 8.45 13 8.45s13-3.791 13-8.45c0-4.515-5.48-8.204-12.34-8.428zm3.891 5.177c1.075 0 1.95.875 1.95 1.95 0 1.076-.875 1.95-1.95 1.95a1.952 1.952 0 0 1-1.95-1.95c0-1.075.875-1.95 1.95-1.95zm-9.1 0c1.075 0 1.95.875 1.95 1.95 0 1.076-.875 1.95-1.95 1.95a1.952 1.952 0 0 1-1.95-1.95c0-1.075.875-1.95 1.95-1.95zm10.652 7.75c-2.159.908-4.155 1.35-6.102 1.35s-3.943-.442-6.102-1.35a.65.65 0 0 1 .504-1.199c3.991 1.681 7.204 1.681 11.195 0a.65.65 0 0 1 .506 1.199zm5.72-11.618c2.154.174 3.778 1.558 3.778 3.218 0 .6-.213 1.186-.615 1.694a.65.65 0 0 1-1.122-.183c-.474-1.322-1.323-2.532-2.523-3.594a.65.65 0 0 1 .482-1.135zM4.84 9.86c-1.2 1.062-2.049 2.272-2.522 3.594a.654.654 0 0 1-.612.43.65.65 0 0 1-.51-.247C.792 13.13.58 12.544.58 11.944c0-1.66 1.624-3.044 3.778-3.218a.656.656 0 0 1 .65.394.651.651 0 0 1-.168.74z"/>
</svg>
