<svg xmlns="http://www.w3.org/2000/svg" width="26" height="25" viewBox="0 0 26 25">
    <path fill="#000" fill-rule="nonzero" d="M13.22 0C6.336 0 .74 5.598.74 12.48c0 5.799 4.107 10.92 9.767 12.176a.52.52 0 0 0 .632-.508V21.32a.52.52 0 0 0-.52-.52H9.58c-1.298 0-2.18-1.23-2.96-2.315-.08-.111-.16-.223-.24-.33.37.195.686.43 1 .663.622.462 1.267.939 2.124.939h.01c.067.007.674.07 1.145-.343.22-.195.481-.562.481-1.214v-.363a.519.519 0 0 0-.378-.5c-2.884-.817-4.822-2.978-4.822-5.377 0-1.248.513-2.439 1.482-3.444a.52.52 0 0 0 .098-.58c-.387-.835-.305-1.97.154-2.65.607.235 1.394.731 1.906 1.339a.52.52 0 0 0 .576.153 9.017 9.017 0 0 1 6.129 0 .52.52 0 0 0 .576-.153c.512-.608 1.3-1.104 1.905-1.34.46.68.542 1.816.154 2.65a.52.52 0 0 0 .098.58c.97 1.006 1.482 2.197 1.482 3.445 0 2.519-2.153 4.775-5.234 5.485a.52.52 0 0 0-.342.749c.256.489.376 1.151.376 2.086v3.869a.52.52 0 0 0 .632.507C21.591 23.4 25.7 18.28 25.7 12.48 25.7 5.598 20.101 0 13.22 0z"/>
</svg>
