<?xml version="1.0" encoding="UTF-8"?>
<svg width="17px" height="25px" viewBox="0 0 17 25" version="1.1" xmlns="http://www.w3.org/2000/svg" xmlns:xlink="http://www.w3.org/1999/xlink">
    <title>TLU</title>
    <g id="Final-Designs" stroke="none" stroke-width="1" fill="none" fill-rule="evenodd">
        <g id="Icons" transform="translate(-4.000000, 0.000000)" fill="#000000">
            <g id="TLU" transform="translate(4.752834, 0.500000)">
                <path d="M7.75321558,15.4096941 C11.0850887,15.4096941 13.3425849,14.5943664 14.5257044,12.9637109 C15.1607611,12.0736448 15.4782895,10.83027 15.4782895,9.23358655 L15.4782895,-3.5190714e-13 L10.6398513,-3.5190714e-13 C10.6498274,4.00187941 10.6490074,6.37806533 10.6373915,7.12855774 C10.6199675,8.25429635 10.6459657,8.91544108 10.4947219,9.37662214 C10.0075551,10.2191275 9.38000479,10.6854553 7.75321558,10.6854553 C6.11772697,10.6854553 5.44174214,10.2642027 4.95457532,9.42169736 C4.64139665,8.94608952 4.71238849,8.29570707 4.71217765,7.15916291 C4.71203709,6.4014668 4.70793739,4.01507917 4.69987855,-3.5190714e-13 L0.015092572,-3.5190714e-13 L0.015092572,9.23358655 C0.015092572,10.83027 0.332620947,12.0736448 0.967677698,12.9637109 C2.15949653,14.5943664 4.42134249,15.4096941 7.75321558,15.4096941 Z" id="U" fill-rule="nonzero"></path>
                <rect id="Rectangle" x="0" y="19.2102973" width="15.4943325" height="4.76042532"></rect>
            </g>
        </g>
    </g>
</svg>