<?xml version="1.0" encoding="UTF-8"?>
<svg width="18px" height="12px" viewBox="0 0 18 12" version="1.1" xmlns="http://www.w3.org/2000/svg" xmlns:xlink="http://www.w3.org/1999/xlink">
    <title>path4156</title>
    <g id="Final-Designs" stroke="none" stroke-width="1" fill="none" fill-rule="evenodd">
        <g id="YouTube_social_white_squircle_(2017)-(1)" transform="translate(0.697189, -0.583648)" fill="#000000" fill-rule="nonzero">
            <path d="M8.49479216,0.60188947 C8.49479216,0.60188947 3.22655466,0.60188947 1.90429722,0.945476726 C1.19631496,1.14329356 0.61334653,1.7262684 0.415527694,2.44466317 C0.071940438,3.76692152 0.071940438,6.5052099 0.071940438,6.5052099 C0.071940438,6.5052099 0.071940438,9.25389328 0.415527694,10.55534 C0.61334653,11.273725 1.18590321,11.8462883 1.90429722,12.04411 C3.23696641,12.3981133 8.49479216,12.3981133 8.49479216,12.3981133 C8.49479216,12.3981133 13.7734739,12.3981133 15.0957039,12.0545267 C15.8141031,11.8567092 16.3866481,11.294555 16.5740565,10.5657566 C16.928091,9.25389661 16.928091,6.51562656 16.928091,6.51562656 C16.928091,6.51562656 16.938464,3.76692152 16.5740565,2.44466317 C16.3866481,1.7262684 15.8141031,1.15371865 15.0957039,0.966310059 C13.7734739,0.60188947 8.49479216,0.60188947 8.49479216,0.60188947 Z M6.81852296,3.97526152 L11.2018239,6.5052099 L6.81852296,9.0247416 L6.81852296,3.97526152 L6.81852296,3.97526152 Z" id="path4156"></path>
        </g>
    </g>
</svg>