<?xml version="1.0" encoding="UTF-8"?>
<svg width="26px" height="20px" viewBox="0 0 26 20" version="1.1" xmlns="http://www.w3.org/2000/svg" xmlns:xlink="http://www.w3.org/1999/xlink">
    <title>social-reddit</title>
    <g id="Final-Designs" stroke="none" stroke-width="1" fill="none" fill-rule="evenodd">
        <g id="Nav" transform="translate(-134.000000, -1223.000000)" fill="#000000" fill-rule="nonzero">
            <g id="social-reddit" transform="translate(134.263257, 1223.015520)">
                <path d="M21.9377615,6.26496044 C21.7152015,6.24832044 21.5061615,6.37312045 21.4177615,6.58008046 C21.3304015,6.78600047 21.3844815,7.02520049 21.5519215,7.1728805 C22.5118416,8.02256056 23.1909616,8.99080063 23.5705616,10.0484807 C23.6350417,10.2263207 23.7900017,10.3552807 23.9761617,10.3864807 C24.0042417,10.3906407 24.0333617,10.3927207 24.0604017,10.3927207 C24.2174417,10.3927207 24.3692817,10.3209607 24.4680817,10.1951207 C24.7894417,9.78848068 24.9600017,9.31944065 24.9600017,8.84000062 C24.9600017,7.51192053 23.6610417,6.40432045 21.9377615,6.26496044 Z" id="Path"></path>
                <path d="M3.40808024,7.1728805 C3.57552025,7.02416049 3.62960025,6.78496047 3.54224025,6.58008046 C3.45384024,6.37312045 3.24480023,6.25040044 3.02224021,6.26496044 C1.29896009,6.40432045 -3.49720253e-13,7.51192053 -3.49720253e-13,8.84000062 C-3.49720253e-13,9.31944065 0.170560012,9.78848068 0.492960034,10.1951207 C0.592800041,10.3209607 0.742560052,10.3927207 0.900640063,10.3927207 C0.927680065,10.3927207 0.956800067,10.3906407 0.984880069,10.3864807 C1.17104008,10.3552807 1.32600009,10.2263207 1.3904801,10.0484807 C1.76904012,8.99080063 2.44816017,8.02256056 3.40808024,7.1728805 Z" id="Path"></path>
                <path d="M13.0072809,5.21768036 C13.0426409,4.10904029 13.2236009,3.07216021 13.948481,2.53760018 C14.677521,2.00096014 15.9473611,1.99888014 17.6914412,2.48768017 C17.6893612,2.52512018 17.6800012,2.56152018 17.6800012,2.60000018 C17.6800012,4.03312028 18.8458413,5.20000036 20.2800014,5.20000036 C21.7141615,5.20000036 22.8800016,4.03312028 22.8800016,2.60000018 C22.8800016,1.16688008 21.7141615,9.23705556e-14 20.2800014,9.23705556e-14 C19.2524813,9.23705556e-14 18.3705613,0.604240042 17.9493613,1.4705601 C15.8600011,0.885040062 14.340561,0.955760067 13.3328009,1.70040012 C12.2564009,2.49392017 12.0099208,3.82824027 11.9693608,5.21664036 C6.47192045,5.39240038 2.08000015,8.34496058 2.08000015,11.9600008 C2.08000015,15.6873611 6.74544047,18.7200013 12.4800009,18.7200013 C18.2145613,18.7200013 22.8800016,15.6873611 22.8800016,11.9600008 C22.8800016,8.34808058 18.4964013,5.39760038 13.0072809,5.21768036 Z M16.1200011,9.36000065 C16.9800812,9.36000065 17.6800012,10.0599207 17.6800012,10.9200008 C17.6800012,11.7800808 16.9800812,12.4800009 16.1200011,12.4800009 C15.2599211,12.4800009 14.560001,11.7800808 14.560001,10.9200008 C14.560001,10.0599207 15.2599211,9.36000065 16.1200011,9.36000065 Z M8.84000062,9.36000065 C9.70008068,9.36000065 10.4000007,10.0599207 10.4000007,10.9200008 C10.4000007,11.7800808 9.70008068,12.4800009 8.84000062,12.4800009 C7.97992056,12.4800009 7.28000051,11.7800808 7.28000051,10.9200008 C7.28000051,10.0599207 7.97992056,9.36000065 8.84000062,9.36000065 Z M17.3617612,15.5594411 C15.6343211,16.2864011 14.037921,16.6400012 12.4800009,16.6400012 C10.9220808,16.6400012 9.32568065,16.2864011 7.59824053,15.5594411 C7.33408051,15.4481611 7.2092805,15.1434411 7.32056051,14.878241 C7.43184052,14.613041 7.73552054,14.489281 8.00176056,14.600561 C11.1945608,15.9452811 13.764401,15.9452811 16.9572012,14.600561 C17.2234412,14.491361 17.5271212,14.614081 17.6384012,14.878241 C17.7496812,15.1424011 17.6259212,15.4481611 17.3617612,15.5594411 Z" id="Shape"></path>
            </g>
        </g>
    </g>
</svg>