<?xml version="1.0" encoding="UTF-8"?>
<svg width="25px" height="27px" viewBox="0 0 25 27" version="1.1" xmlns="http://www.w3.org/2000/svg" xmlns:xlink="http://www.w3.org/1999/xlink">
    <title>social-telegram</title>
    <g id="Final-Designs" stroke="none" stroke-width="1" fill="none" fill-rule="evenodd">
        <g id="Nav" transform="translate(-57.000000, -1281.000000)" fill="#0088CC" fill-rule="nonzero">
            <g id="Group-2" transform="translate(47.000000, 1271.500000)">
                <g id="social-telegram" transform="translate(10.000000, 10.500000)">
                    <path d="M12.5,0 C19.4035594,0 25,5.59644063 25,12.5 C25,19.4035594 19.4035594,25 12.5,25 C5.59644063,25 0,19.4035594 0,12.5 C0,5.59644063 5.59644063,0 12.5,0 Z M18.8148898,7.47929338 C18.880113,7.16498024 18.5712983,6.90276033 18.2719637,7.0185125 L18.2719637,7.0185125 L4.1521892,12.4655482 C3.80370026,12.5997866 3.8066865,13.0931791 4.15617085,13.2240994 L4.15617085,13.2240994 L7.59664592,14.5081333 L8.92831734,18.7908216 C9.01354356,19.064939 9.34894994,19.1663762 9.57149558,18.9843581 L9.57149558,18.9843581 L11.4893224,17.4210401 C11.6903482,17.2571289 11.976695,17.2490234 12.1866795,17.4015111 L12.1866795,17.4015111 L15.6457355,19.9128403 C15.8838286,20.0858523 16.2212732,19.9554534 16.2809505,19.6676846 L16.2809505,19.6676846 Z M15.4377419,9.68337216 C15.5585185,9.60919028 15.6828976,9.77258002 15.5789956,9.86880316 L15.5789956,9.86880316 L10.029859,15.0270272 C9.83475831,15.208524 9.70900462,15.4516415 9.67331199,15.7153782 L9.67331199,15.7153782 L9.48437335,17.1162071 C9.45920365,17.3032023 9.19660453,17.3216885 9.14489052,17.1407132 L9.14489052,17.1407132 L8.41790808,14.5862494 C8.33476749,14.2948781 8.45606553,13.983646 8.71378239,13.8246172 L8.71378239,13.8246172 Z" id="Shape"></path>
                </g>
            </g>
        </g>
    </g>
</svg>