<?xml version="1.0" encoding="UTF-8"?>
<svg width="23px" height="18px" viewBox="0 0 23 18" version="1.1" xmlns="http://www.w3.org/2000/svg" xmlns:xlink="http://www.w3.org/1999/xlink">
    <title>social-youtube</title>
    <g id="Final-Designs" stroke="none" stroke-width="1" fill="none" fill-rule="evenodd">
        <g id="Nav" transform="translate(-90.000000, -1225.000000)" fill="#000000" fill-rule="nonzero">
            <g id="social-youtube" transform="translate(90.981592, 1225.235041)">
                <path d="M10.9778852,0.777826392 C10.9778852,0.777826392 4.1697014,0.777826392 2.46093794,1.22184685 C1.54600702,1.47748707 0.792632439,2.23086994 0.536989635,3.15925702 C0.0929691815,4.86802166 0.0929691815,8.40673279 0.0929691815,8.40673279 C0.0929691815,8.40673279 0.0929691815,11.9588775 0.536989635,13.640747 C0.792632439,14.5691215 1.53255184,15.3090495 2.46093794,15.564696 C4.18315659,16.0221772 10.9778852,16.0221772 10.9778852,16.0221772 C10.9778852,16.0221772 17.7995663,16.0221772 19.5082943,15.5781575 C20.4366871,15.3225164 21.1765914,14.5960403 21.4187806,13.6542086 C21.8763022,11.9588818 21.8763022,8.42019433 21.8763022,8.42019433 C21.8763022,8.42019433 21.8897073,4.86802166 21.4187806,3.15925702 C21.1765914,2.23086994 20.4366871,1.49095948 19.5082943,1.24876992 C17.7995663,0.777826392 10.9778852,0.777826392 10.9778852,0.777826392 Z M8.81162967,5.13726105 L14.4762031,8.40673279 L8.81162967,11.662743 L8.81162967,5.13726105 L8.81162967,5.13726105 Z" id="path4156"></path>
            </g>
        </g>
    </g>
</svg>