<?xml version="1.0" encoding="UTF-8"?>
<svg width="36px" height="36px" viewBox="0 0 36 36" version="1.1" xmlns="http://www.w3.org/2000/svg" xmlns:xlink="http://www.w3.org/1999/xlink">
    <title>Shape</title>
    <g id="Meta-Image" stroke="none" stroke-width="1" fill="none" fill-rule="evenodd">
        <g id="Maintenance-Setting-Key-Bolt-(1)" transform="translate(-109.000000, -161.000000)" fill="#9130FF" fill-rule="nonzero">
            <path d="M126.860977,164.06554 C129.665783,166.870347 130.606374,170.962044 129.431847,174.645189 L144.100657,189.313999 C145.299781,190.513124 145.299781,192.457289 144.100657,193.656413 L141.656413,196.100657 C140.457289,197.299781 138.513124,197.299781 137.313999,196.100657 L122.645189,181.431847 C118.962044,182.606374 114.870347,181.665783 112.06554,178.860977 C109.096987,175.892423 108.216672,171.482335 109.722056,167.640768 L110.292738,166.184453 L117.070108,172.961822 L119.988894,171.988894 L120.961822,169.070108 L114.184453,162.292738 L115.640768,161.722056 C119.482335,160.216672 123.892423,161.096987 126.860977,164.06554 Z M117.967233,163.180575 L123.30388,168.517223 L121.607216,173.607216 L116.517223,175.30388 L111.180575,169.967233 C110.700328,172.631044 111.52388,175.424374 113.513011,177.413505 C115.901082,179.801576 119.448278,180.509646 122.53888,179.29854 L123.162463,179.054178 L138.761471,194.653185 C139.161179,195.052894 139.809234,195.052894 140.208942,194.653185 L142.653185,192.208942 C143.052894,191.809234 143.052894,191.161179 142.653185,190.761471 L127.054178,175.162463 L127.29854,174.53888 C128.509646,171.448278 127.801576,167.901082 125.413505,165.513011 C123.424374,163.52388 120.631044,162.700328 117.967233,163.180575 Z M126.414214,177 L131,181.585786 L129.585786,183 L125,178.414214 L126.414214,177 Z" id="Shape"></path>
        </g>
    </g>
</svg>